<svg width="107" height="73" viewBox="0 0 107 73" fill="none" xmlns="http://www.w3.org/2000/svg">
<path d="M67.6981 56.4772H30.1146V51.4789C30.1146 47.2686 33.5225 43.8556 37.7264 43.8556H75.3099V48.8539C75.3102 53.0639 71.902 56.4772 67.6981 56.4772Z" fill="#0EABEB"/>
<path d="M46.413 72.7996V35.1594C46.413 30.9491 49.8208 27.5361 54.0248 27.5361H59.0156V65.1761C59.0156 69.3864 55.6078 72.7993 51.4038 72.7993L46.413 72.7996Z" fill="#0EABEB"/>
<path d="M27.7636 68.9601C23.3051 66.4449 19.0477 63.5106 15.1607 60.0655C13.2087 58.3522 11.3931 56.4702 9.69561 54.4689C8.00558 52.4617 6.44946 50.3146 5.10564 48.0181L4.15154 46.2634L3.2968 44.4856C2.7568 43.2587 2.23779 41.9459 1.8311 40.6832C0.996723 38.1204 0.426179 35.4596 0.15402 32.7476C-0.355737 27.3358 0.372795 21.6625 2.74477 16.5119L3.70843 14.6187L4.82793 12.8035L4.89859 12.6901L5.03127 12.5086L5.1726 12.3152L5.45494 11.928L6.01993 11.1535C6.50469 10.5877 6.99501 10.0008 7.49397 9.4622C9.45246 7.39229 11.718 5.63822 14.1659 4.22686C16.6128 2.80902 19.256 1.76108 21.9819 1.04722C24.7103 0.340766 27.534 -0.0288366 30.3732 0.00175771C31.0826 0.0131919 31.7926 0.0644907 32.5023 0.0975573L34.5163 0.323457C35.2393 0.447997 35.9876 0.560491 36.689 0.7079C37.3722 0.873542 38.0658 1.00796 38.7401 1.20482C41.4524 1.94619 44.0619 3.01143 46.5098 4.34862C51.4068 7.02052 55.7179 10.6894 59.1183 15.0912L54.2068 14.7312C56.0922 12.9509 58.1654 11.3915 60.3729 10.0676C62.5808 8.74616 64.925 7.6525 67.3722 6.86137C72.2507 5.27696 77.5103 4.64838 82.6622 5.46763C83.308 5.53314 83.9418 5.7025 84.5799 5.82549C85.2202 5.94262 85.8488 6.11661 86.4736 6.30574L87.4123 6.57921L87.5295 6.61352L87.5882 6.63084L87.7616 6.69108L87.9662 6.76929L88.3756 6.92533L89.1943 7.23746L89.6028 7.39569L90.0681 7.6117C90.6874 7.90806 91.3262 8.1998 91.9205 8.51347L93.6059 9.50051C94.6893 10.2172 95.7591 10.953 96.7407 11.796C100.723 15.0922 103.791 19.4403 105.509 24.3113C106.37 26.7427 106.89 29.3055 107 31.8974L106.982 33.8425L106.979 34.0851L106.969 34.2711L106.959 34.3805L106.918 34.8175L106.827 35.6948C106.633 37.0422 106.396 38.2922 106.039 39.5036C105.348 41.9407 104.356 44.2594 103.114 46.3991C101.873 48.5401 100.441 50.5445 98.8164 52.3594C95.5545 55.9853 91.7517 58.9669 87.7261 61.4577C83.7119 63.9732 79.5166 66.0746 75.2966 68.1087C79.1645 65.4625 83.0763 62.8814 86.7063 60.0055C90.3212 57.1287 93.7139 53.9964 96.3756 50.3677C97.692 48.5475 98.8858 46.6562 99.8384 44.6648C100.804 42.6814 101.507 40.5995 101.939 38.4962C102.17 37.4415 102.277 36.3722 102.356 35.3969L102.382 34.5236L102.398 34.0851L102.402 33.9753L102.404 33.9206C102.408 33.8468 102.4 33.9905 102.4 33.967L102.399 33.9426L102.39 33.7467L102.322 32.1826C102.117 30.1019 101.587 28.0564 100.782 26.1203C99.9742 24.1864 98.9111 22.3489 97.6071 20.6965C96.2935 19.0524 94.788 17.5691 93.1403 16.2872C92.3238 15.6333 91.4385 15.0817 90.5551 14.5381L89.1863 13.8044L87.8662 13.2173L87.5342 13.0695L87.1201 12.9265L86.2931 12.6366L85.8796 12.4916L85.6729 12.419L85.647 12.4101C85.5306 12.3699 85.7763 12.4543 85.7426 12.4438L85.6957 12.4317L85.6019 12.4076L84.8518 12.2141C84.3544 12.0766 83.8545 11.9493 83.3407 11.8745C82.8294 11.7938 82.3283 11.6634 81.8081 11.631C77.6923 11.1001 73.4295 11.6817 69.4585 13.0325C67.4642 13.704 65.5711 14.654 63.7725 15.73C61.979 16.8194 60.3038 18.0947 58.7943 19.532L56.152 22.0488L53.8825 19.172C50.9992 15.5171 47.4065 12.3878 43.3451 10.1541C41.3147 9.0413 39.1801 8.13582 36.979 7.48994C36.4313 7.3175 35.87 7.20564 35.3165 7.05761C34.7712 6.934 34.2568 6.85272 33.7258 6.74054L31.9395 6.50784C31.3751 6.47725 30.812 6.42346 30.246 6.40461C25.7141 6.26215 21.0917 7.32739 17.0633 9.4625C15.0471 10.525 13.1815 11.8618 11.5655 13.4438L10.4677 14.5918L9.33644 15.989L8.36691 17.3867L7.51155 18.8673C6.44421 20.8902 5.67587 23.0986 5.20407 25.3932C4.72733 27.6887 4.56194 30.0682 4.63229 32.4543C4.69524 34.8425 5.02479 37.2424 5.60274 39.5908C5.89619 40.7874 6.23871 41.8823 6.64046 43.031L7.32117 44.7649L8.0784 46.4402C9.13216 48.6584 10.3816 50.8035 11.8041 52.8471C13.2195 54.8975 14.8216 56.8284 16.502 58.7051C19.8867 62.4416 23.7337 65.8027 27.7636 68.9601Z" fill="#0EABEB"/>
</svg>
