<svg width="107" height="73" viewBox="0 0 107 73" fill="none" xmlns="http://www.w3.org/2000/svg">
<path d="M67.698 56.4771H30.1146V51.4788C30.1146 47.2685 33.5224 43.8556 37.7264 43.8556H75.3098V48.8539C75.3101 53.0638 71.902 56.4771 67.698 56.4771Z" fill="#0EABEB"/>
<path d="M46.4129 72.7995V35.1593C46.4129 30.9491 49.8208 27.5361 54.0247 27.5361H59.0155V65.176C59.0155 69.3863 55.6077 72.7992 51.4037 72.7992L46.4129 72.7995Z" fill="#0EABEB"/>
<path d="M27.7636 68.96C23.3051 66.4448 19.0477 63.5105 15.1607 60.0654C13.2087 58.3522 11.393 56.4701 9.6956 54.4688C8.00557 52.4617 6.44945 50.3145 5.10563 48.0181L4.15154 46.2634L3.2968 44.4855C2.7568 43.2587 2.23779 41.9459 1.83109 40.6832C0.996722 38.1204 0.426178 35.4596 0.15402 32.7475C-0.355737 27.3357 0.372794 21.6625 2.74477 16.5119L3.70843 14.6187L4.82792 12.8035L4.89858 12.69L5.03127 12.5086L5.17259 12.3152L5.45493 11.928L6.01992 11.1535C6.50468 10.5877 6.995 10.0008 7.49396 9.46219C9.45245 7.39229 11.718 5.63821 14.1658 4.22686C16.6128 2.80901 19.256 1.76108 21.9819 1.04722C24.7103 0.340766 27.534 -0.0288366 30.3731 0.00175771C31.0825 0.0131919 31.7926 0.0644907 32.5023 0.0975572L34.5163 0.323457C35.2393 0.447997 35.9876 0.560491 36.6889 0.707899C37.3721 0.873541 38.0658 1.00796 38.74 1.20482C41.4523 1.94619 44.0619 3.01142 46.5098 4.34861C51.4068 7.02051 55.7178 10.6893 59.1182 15.0912L54.2067 14.7312C56.0921 12.9509 58.1654 11.3915 60.3729 10.0676C62.5807 8.74615 64.9249 7.65249 67.3721 6.86136C72.2506 5.27695 77.5102 4.64837 82.6621 5.46762C83.3079 5.53313 83.9417 5.70249 84.5798 5.82549C85.2201 5.94261 85.8487 6.1166 86.4735 6.30573L87.4122 6.57921L87.5294 6.61352L87.5881 6.63083L87.7615 6.69108L87.9661 6.76928L88.3755 6.92532L89.1942 7.23745L89.6027 7.39568L90.068 7.61169C90.6873 7.90805 91.3261 8.19979 91.9204 8.51346L93.6058 9.5005C94.6892 10.2171 95.759 10.953 96.7406 11.796C100.723 15.0922 103.791 19.4402 105.509 24.3112C106.369 26.7427 106.889 29.3055 107 31.8974L106.982 33.8424L106.979 34.085L106.968 34.2711L106.959 34.3805L106.917 34.8174L106.826 35.6948C106.633 37.0422 106.395 38.2922 106.039 39.5036C105.347 41.9406 104.356 44.2593 103.113 46.3991C101.873 48.54 100.441 50.5444 98.8163 52.3594C95.5544 55.9853 91.7516 58.9668 87.726 61.4576C83.7118 63.9731 79.5165 66.0746 75.2965 68.1086C79.1644 65.4624 83.0762 62.8813 86.7062 60.0055C90.3211 57.1287 93.7138 53.9963 96.3755 50.3677C97.6919 48.5474 98.8857 46.6562 99.8383 44.6648C100.804 42.6814 101.507 40.5994 101.939 38.4962C102.17 37.4414 102.277 36.3722 102.356 35.3969L102.382 34.5235L102.398 34.085L102.402 33.9753L102.404 33.9206C102.407 33.8467 102.4 33.9905 102.4 33.967L102.399 33.9426L102.39 33.7466L102.322 32.1826C102.117 30.1019 101.587 28.0564 100.782 26.1203C99.974 24.1864 98.911 22.3489 97.607 20.6965C96.2934 19.0524 94.7879 17.569 93.1402 16.2872C92.3237 15.6333 91.4384 15.0816 90.555 14.5381L89.1861 13.8044L87.8661 13.2173L87.5341 13.0695L87.12 12.9264L86.293 12.6366L85.8795 12.4916L85.6728 12.419L85.6469 12.4101C85.5305 12.3699 85.7762 12.4543 85.7425 12.4437L85.6956 12.4317L85.6018 12.4076L84.8517 12.2141C84.3543 12.0766 83.8544 11.9493 83.3406 11.8745C82.8293 11.7938 82.3282 11.6634 81.808 11.631C77.6923 11.1001 73.4294 11.6817 69.4584 13.0324C67.4641 13.704 65.571 14.6539 63.7724 15.73C61.979 16.8193 60.3038 18.0947 58.7942 19.532L56.152 22.0488L53.8824 19.172C50.9992 15.5171 47.4065 12.3878 43.3451 10.1541C41.3147 9.04129 39.18 8.13581 36.979 7.48993C36.4313 7.31749 35.87 7.20563 35.3164 7.0576C34.7712 6.93399 34.2568 6.85271 33.7258 6.74053L31.9394 6.50783C31.3751 6.47724 30.8119 6.42345 30.246 6.4046C25.7141 6.26214 21.0917 7.32738 17.0633 9.46249C15.0471 10.5249 13.1815 11.8618 11.5655 13.4438L10.4676 14.5918L9.33643 15.989L8.3669 17.3867L7.51155 18.8673C6.4442 20.8902 5.67587 23.0986 5.20407 25.3931C4.72733 27.6886 4.56193 30.0682 4.63229 32.4542C4.69524 34.8424 5.02478 37.2424 5.60273 39.5907C5.89618 40.7873 6.2387 41.8822 6.64046 43.0309L7.32116 44.7649L8.07839 46.4402C9.13215 48.6584 10.3815 50.8034 11.8041 52.847C13.2195 54.8975 14.8216 56.8283 16.502 58.7051C19.8867 62.4416 23.7337 65.8026 27.7636 68.96Z" fill="#0EABEB"/>
</svg>
