<svg width="107" height="73" viewBox="0 0 107 73" fill="none" xmlns="http://www.w3.org/2000/svg">
<path d="M67.6982 56.4772H30.1147V51.4789C30.1147 47.2686 33.5225 43.8557 37.7265 43.8557H75.31V48.854C75.3103 53.064 71.9021 56.4772 67.6982 56.4772Z" fill="#0EABEB"/>
<path d="M46.4131 72.7997V35.1594C46.4131 30.9491 49.8209 27.5361 54.0249 27.5361H59.0157V65.1762C59.0157 69.3864 55.6078 72.7994 51.4039 72.7994L46.4131 72.7997Z" fill="#0EABEB"/>
<path d="M27.7636 68.9602C23.3051 66.4449 19.0478 63.5107 15.1607 60.0656C13.2087 58.3523 11.3931 56.4703 9.69562 54.469C8.00559 52.4618 6.44947 50.3146 5.10564 48.0182L4.15155 46.2635L3.29681 44.4856C2.75681 43.2588 2.23779 41.946 1.8311 40.6833C0.996724 38.1204 0.426179 35.4597 0.15402 32.7476C-0.355737 27.3358 0.372795 21.6626 2.74477 16.5119L3.70844 14.6187L4.82793 12.8035L4.89859 12.6901L5.03128 12.5087L5.1726 12.3152L5.45495 11.928L6.01994 11.1535C6.5047 10.5877 6.99502 10.0009 7.49398 9.46221C9.45247 7.3923 11.718 5.63822 14.1659 4.22687C16.6128 2.80902 19.2561 1.76109 21.982 1.04722C24.7103 0.340766 27.5341 -0.0288366 30.3732 0.00175771C31.0826 0.013192 31.7926 0.0644908 32.5023 0.0975574L34.5164 0.323457C35.2394 0.447998 35.9876 0.560492 36.689 0.707901C37.3722 0.873543 38.0659 1.00796 38.7401 1.20482C41.4524 1.94619 44.062 3.01143 46.5099 4.34862C51.4069 7.02053 55.7179 10.6894 59.1184 15.0913L54.2069 14.7312C56.0922 12.9509 58.1655 11.3915 60.373 10.0676C62.5808 8.74617 64.925 7.6525 67.3723 6.86138C72.2508 5.27696 77.5104 4.64838 82.6623 5.46763C83.3081 5.53315 83.9419 5.7025 84.58 5.8255C85.2203 5.94262 85.8489 6.11661 86.4737 6.30574L87.4124 6.57922L87.5296 6.61353L87.5883 6.63085L87.7617 6.69109L87.9663 6.76929L88.3757 6.92534L89.1944 7.23747L89.6029 7.3957L90.0683 7.61171C90.6876 7.90807 91.3263 8.19981 91.9206 8.51348L93.606 9.50052C94.6894 10.2172 95.7592 10.953 96.7408 11.796C100.723 15.0922 103.792 19.4403 105.509 24.3113C106.37 26.7428 106.89 29.3056 107 31.8974L106.983 33.8425L106.979 34.0851L106.969 34.2711L106.959 34.3805L106.918 34.8175L106.827 35.6948C106.633 37.0422 106.396 38.2923 106.039 39.5037C105.348 41.9407 104.357 44.2594 103.114 46.3992C101.873 48.5401 100.441 50.5445 98.8165 52.3595C95.5546 55.9854 91.7518 58.9669 87.7262 61.4578C83.712 63.9733 79.5167 66.0747 75.2967 68.1088C79.1646 65.4625 83.0764 62.8815 86.7064 60.0056C90.3213 57.1288 93.714 53.9964 96.3757 50.3678C97.6921 48.5476 98.886 46.6563 99.8385 44.6649C100.804 42.6815 101.507 40.5995 101.939 38.4962C102.17 37.4415 102.277 36.3723 102.356 35.3969L102.382 34.5236L102.398 34.0851L102.402 33.9754L102.404 33.9207C102.408 33.8468 102.401 33.9905 102.401 33.967L102.399 33.9426L102.39 33.7467L102.322 32.1827C102.118 30.102 101.587 28.0565 100.782 26.1204C99.9743 24.1864 98.9113 22.3489 97.6072 20.6965C96.2937 19.0524 94.7881 17.5691 93.1404 16.2872C92.3239 15.6333 91.4386 15.0817 90.5552 14.5381L89.1864 13.8044L87.8663 13.2173L87.5343 13.0696L87.1202 12.9265L86.2932 12.6366L85.8797 12.4917L85.673 12.419L85.6471 12.4101C85.5307 12.3699 85.7764 12.4543 85.7427 12.4438L85.6958 12.4317L85.602 12.4076L84.8519 12.2141C84.3545 12.0766 83.8546 11.9493 83.3408 11.8745C82.8295 11.7939 82.3284 11.6635 81.8081 11.631C77.6924 11.1001 73.4295 11.6817 69.4585 13.0325C67.4643 13.704 65.5712 14.654 63.7725 15.73C61.9791 16.8194 60.3039 18.0947 58.7944 19.5321L56.1521 22.0489L53.8826 19.172C50.9993 15.5171 47.4066 12.3878 43.3452 10.1541C41.3148 9.04131 39.1801 8.13583 36.9791 7.48995C36.4314 7.31751 35.8701 7.20564 35.3165 7.05762C34.7713 6.934 34.2569 6.85273 33.7258 6.74055L31.9395 6.50785C31.3751 6.47725 30.812 6.42347 30.2461 6.40462C25.7141 6.26215 21.0917 7.3274 17.0634 9.46251C15.0472 10.525 13.1815 11.8618 11.5656 13.4438L10.4677 14.5919L9.33645 15.989L8.36692 17.3868L7.51156 18.8673C6.44422 20.8903 5.67588 23.0986 5.20408 25.3932C4.72734 27.6887 4.56194 30.0683 4.6323 32.4543C4.69525 34.8425 5.0248 37.2425 5.60275 39.5908C5.8962 40.7874 6.23871 41.8823 6.64047 43.031L7.32117 44.765L8.07841 46.4403C9.13217 48.6585 10.3816 50.8035 11.8041 52.8471C13.2195 54.8976 14.8216 56.8284 16.5021 58.7052C19.8868 62.4417 23.7337 65.8028 27.7636 68.9602Z" fill="#0EABEB"/>
</svg>
