<svg width="865" height="515" viewBox="0 0 865 515" fill="none" xmlns="http://www.w3.org/2000/svg">
<path d="M233 249.046V183.277C233.003 181.372 233.761 179.545 235.108 178.198C236.455 176.851 238.281 176.093 240.186 176.091H332.024C333.929 176.093 335.755 176.851 337.102 178.198C338.45 179.545 339.207 181.372 339.21 183.277V313.67C339.207 315.574 338.449 317.4 337.102 318.745C335.754 320.09 333.928 320.845 332.024 320.844H240.186C239.295 320.85 238.412 320.681 237.586 320.345" stroke="#274288" stroke-width="1.71629" stroke-linecap="round" stroke-linejoin="round"/>
<path d="M330.069 180.493H242.141C238.872 180.493 236.223 183.142 236.223 186.411V310.556C236.223 313.824 238.872 316.474 242.141 316.474H330.069C333.337 316.474 335.987 313.824 335.987 310.556V186.411C335.987 183.142 333.337 180.493 330.069 180.493Z" fill="#4F4F4F"/>
<path d="M328.245 191.016H245.055C243.421 191.016 242.096 192.341 242.096 193.975V213.515C242.096 215.15 243.421 216.474 245.055 216.474H328.245C329.879 216.474 331.204 215.15 331.204 213.515V193.975C331.204 192.341 329.879 191.016 328.245 191.016Z" fill="#F4F4F4"/>
<path d="M286.868 201.16C288.82 201.16 290.402 199.577 290.402 197.625C290.402 195.673 288.82 194.091 286.868 194.091C284.916 194.091 283.333 195.673 283.333 197.625C283.333 199.577 284.916 201.16 286.868 201.16Z" fill="#5678E9"/>
<path d="M277.002 213.609C276.975 212.296 277.21 210.991 277.693 209.77C278.177 208.549 278.9 207.436 279.819 206.498C280.738 205.56 281.835 204.814 283.046 204.305C284.256 203.796 285.557 203.534 286.87 203.534C288.183 203.534 289.484 203.796 290.694 204.305C291.905 204.814 293.002 205.56 293.921 206.498C294.84 207.436 295.563 208.549 296.047 209.77C296.53 210.991 296.765 212.296 296.738 213.609H277.002Z" fill="#5678E9"/>
<path d="M251.005 227.84H320.293" stroke="white" stroke-width="1.71629" stroke-miterlimit="10"/>
<path d="M251.005 234.661H320.293" stroke="white" stroke-width="1.71629" stroke-miterlimit="10"/>
<path d="M251.005 278.579H320.293" stroke="white" stroke-width="1.71629" stroke-miterlimit="10"/>
<path d="M267.1 285.027H304.197" stroke="white" stroke-width="1.71629" stroke-miterlimit="10"/>
<path d="M268.565 260.437L263.038 266.311C262.133 267.273 260.882 267.836 259.562 267.876C258.241 267.917 256.959 267.431 255.997 266.525C255.034 265.62 254.471 264.37 254.431 263.049C254.391 261.729 254.877 260.446 255.782 259.484L261.306 253.61L268.565 260.437Z" fill="#D2B453"/>
<path d="M274.086 254.557L268.559 260.437L261.3 253.61L266.83 247.733C267.737 246.774 268.987 246.213 270.307 246.172C271.627 246.132 272.909 246.615 273.873 247.517C274.829 248.426 275.387 249.675 275.427 250.993C275.467 252.312 274.985 253.592 274.086 254.557Z" fill="#CEEDFF"/>
<path d="M295.569 250.73C295.333 249.592 297.666 247.711 298.445 247.301C301.283 245.813 305.65 246.935 307.205 249.777C310.774 256.292 300.746 265.579 295.569 267.874C294.974 267.397 280.809 256.801 284.143 250.018C287.477 243.236 294.745 246.681 295.569 250.73Z" fill="#CEEDFF"/>
<path d="M284.876 262.344H292.597" stroke="white" stroke-width="1.71629" stroke-linecap="round" stroke-linejoin="round"/>
<path d="M288.738 266.203V258.482" stroke="white" stroke-width="1.71629" stroke-linecap="round" stroke-linejoin="round"/>
<path d="M516.613 499.134C521.356 499.134 525.968 498.923 530.449 498.499C560.706 495.709 584.629 483.781 600.538 467.127C608.953 458.448 615.317 447.993 619.162 436.531C622.783 425.68 623.839 414.137 622.247 402.809C611.254 324.725 518.922 362.696 557.63 315.203C596.337 267.711 520.562 207.307 491.509 221.585C462.455 235.862 494.497 266.454 422.646 252C350.794 237.546 365.663 301.093 365.663 301.093" stroke="#818194" stroke-width="2.12469" stroke-miterlimit="10"/>
<path d="M323.165 431.744C323.165 431.744 290.259 408.147 277.555 434.243C277.555 434.243 290.916 386.892 336.486 369.956C336.486 369.956 349.512 362.709 350.085 367.086C350.658 371.463 354.436 373.698 356.089 373.645C357.742 373.593 371.698 374.465 372.183 372.38C372.668 370.295 371.742 364.049 378.663 364.005C385.583 363.961 423.136 373.209 433.874 382.96C433.874 382.96 415.183 405.525 425.176 430.404L416.757 428.372C416.757 428.372 421.95 473.334 414.87 499.487H292.591C292.591 499.487 304.814 501.025 317.351 492.081L335.556 468.719C335.556 468.719 343.539 456.623 359.849 454.895C359.849 454.895 369.132 453.881 369.044 449.469C368.956 445.056 372.39 452.294 376.979 445.916C377.538 445.916 388.691 446.559 388.691 446.559C388.691 446.559 397.066 447.344 398.64 439.868C400.214 432.392 406.015 379.918 403.93 376.766C401.845 373.615 401.047 373.575 383.45 373.681C365.853 373.787 350.389 370.278 348.15 379.032C345.911 387.787 343.301 420.957 343.301 420.957C343.301 420.957 333.383 423.554 325.827 434.296C325.876 434.261 323.165 439.498 323.165 431.744Z" fill="#0EABEB"/>
<path d="M323.16 415.809V436.465" stroke="#274288" stroke-width="2.12469" stroke-miterlimit="10"/>
<path d="M416.192 426.137C435.609 436.465 489.273 457.54 491.16 376.48C491.16 376.48 488.85 355.193 494.872 352.416C500.893 349.639 510.604 340.845 498.098 319.554L506.258 311.412C506.804 310.85 507.234 310.187 507.523 309.459C507.812 308.731 507.955 307.953 507.944 307.17C507.933 306.387 507.767 305.613 507.457 304.894C507.147 304.174 506.698 303.523 506.136 302.977C505.574 302.432 504.911 302.002 504.183 301.712C503.455 301.423 502.677 301.28 501.894 301.291C501.111 301.302 500.337 301.468 499.618 301.778C498.899 302.088 498.247 302.537 497.702 303.099L481.484 320.29C481.484 320.29 479.135 315.882 474.969 318.179C470.804 320.475 455.525 330.221 462.464 350.574L444.417 402.412" stroke="#274288" stroke-width="2.12469" stroke-miterlimit="10"/>
<path d="M481.48 320.268C481.48 320.268 485.804 326.849 476.6 333.576" stroke="#274288" stroke-width="2.12469" stroke-miterlimit="10"/>
<path d="M500.778 324.654C500.778 324.654 503.472 333.113 492.606 338.571C488.762 340.501 484.544 336.437 486.36 332.536C486.391 332.479 486.417 332.417 486.448 332.355" stroke="#274288" stroke-width="2.12469" stroke-miterlimit="10"/>
<path d="M504.067 335.102C504.067 335.102 501.691 343.362 495.189 343.759C489.436 344.107 490.402 338.24 490.402 338.24" stroke="#274288" stroke-width="2.12469" stroke-miterlimit="10"/>
<path d="M392.834 329.926C392.393 330.041 392.115 329.675 391.705 329.746C385.812 328.67 381.43 324.015 380.936 321.776C381.104 322.997 383.343 322.873 382.964 324.121C382.893 324.359 382.752 324.266 382.638 324.496C382.453 324.936 382.457 324.333 382.197 324.729C380.751 322.591 379.914 321.529 379.658 320.352C379.832 321.615 379.73 322.901 379.358 324.121C379.29 324.359 379.2 324.591 379.089 324.813C378.208 326.894 376.37 328.652 373.297 329.089C372.527 329.186 371.749 329.211 370.974 329.164C368.77 329.036 366.866 328.908 365.243 328.838C359.822 328.595 357.878 329.005 358.486 332.505C358.822 334.088 359.296 335.639 359.906 337.138C360.981 339.968 361.73 344.87 360.628 350.208V350.239C359.35 356.454 355.303 361.259 346.633 365.773C345.097 366.566 343.513 367.262 341.89 367.858C326.845 373.438 290.857 387.575 275.94 439.414C274.354 444.937 273.168 449.962 272.33 454.551L271.92 454.313C261.72 448.208 255.077 434.477 257.105 422.729C258.11 416.88 261.919 412.798 266.803 409.726C270.232 407.601 273.899 405.86 276.972 403.237C287.155 394.54 279.013 381.016 284.651 370.617C291.008 358.918 300.961 351.707 313.956 351.112C317.227 351.253 320.907 351.636 324.478 351.464C329.662 351.649 334.96 351.226 338.755 347.828C341.744 345.183 342.366 340.872 343.499 337.275C344.774 333.218 345.838 329.099 346.686 324.932C347.45 320.973 348.887 317.174 350.935 313.7C353.153 309.949 356.281 306.816 360.029 304.593C363.299 302.748 366.944 301.667 370.692 301.433C374.105 301.634 377.424 302.624 380.39 304.324C381.402 304.923 382.36 305.61 383.251 306.378C389.845 312.008 392.988 321.485 392.834 329.926Z" fill="#141414"/>
<path d="M492.421 343.265C492.421 343.265 490.319 345.875 491.469 348.352C492.62 350.829 495.476 351.407 498.253 350.322" stroke="#274288" stroke-width="2.12469" stroke-miterlimit="10"/>
<path d="M498.103 319.541L492.297 325.346" stroke="#274288" stroke-width="2.12469" stroke-miterlimit="10"/>
<path d="M343.344 420.358L348.074 379.583C348.266 377.934 349.057 376.412 350.297 375.307C351.537 374.203 353.14 373.593 354.801 373.593H398.238C399.188 373.592 400.128 373.792 400.997 374.179C401.865 374.565 402.642 375.131 403.277 375.837C403.913 376.544 404.392 377.377 404.684 378.281C404.976 379.186 405.075 380.141 404.974 381.086L398.644 439.837C398.464 441.498 397.677 443.035 396.434 444.151C395.191 445.267 393.579 445.885 391.908 445.885H376.365" stroke="#274288" stroke-width="2.12469" stroke-miterlimit="10"/>
<path d="M394.685 383.978C395.664 383.978 396.457 383.185 396.457 382.206C396.457 381.227 395.664 380.434 394.685 380.434C393.707 380.434 392.913 381.227 392.913 382.206C392.913 383.185 393.707 383.978 394.685 383.978Z" fill="#274288"/>
<path d="M365.433 429.817C370.018 430.849 370.934 430.867 375.382 431.528C378.185 431.969 384.595 432.295 384.709 427.944C384.815 424.122 380.526 421.878 377.498 420.657C374.003 419.328 370.346 418.473 366.623 418.114C365.089 417.938 363.548 417.817 361.999 417.753C351.266 417.312 338.883 419.908 331.491 428.305C314.366 447.736 291.594 460.229 291.594 460.229" stroke="#274288" stroke-width="2.12469" stroke-miterlimit="10"/>
<path d="M377.71 431.744C379.914 432.679 383.647 434.671 382.118 438.489C381.421 440.252 380.156 440.878 378.42 441.133C374.668 441.676 370.644 440.878 366.959 440.106C365.597 439.82 363.181 439.295 361.836 438.925" stroke="#274288" stroke-width="2.12469" stroke-miterlimit="10"/>
<path d="M373.791 441.221C373.791 441.221 377.798 441.173 376.832 444.898C375.241 451.069 362.877 448.274 357.093 446.978" stroke="#274288" stroke-width="2.12469" stroke-miterlimit="10"/>
<path d="M374.038 364.34C392.878 365.165 421.588 370.688 447.622 393.209" stroke="#274288" stroke-width="2.12469" stroke-miterlimit="10"/>
<path d="M682.253 499.009H200.221" stroke="#274288" stroke-width="3.00068" stroke-miterlimit="10"/>
<path d="M416.192 417.708C416.192 417.708 420.6 458.734 416.192 499.139" stroke="#274288" stroke-width="2.12469" stroke-miterlimit="10"/>
<path opacity="0.54" d="M610.729 398.97L649.472 299.696C649.952 297.775 649.988 295.77 649.577 293.833C649.167 291.896 648.32 290.078 647.102 288.517C645.884 286.957 644.326 285.694 642.547 284.826C640.768 283.957 638.814 283.505 636.834 283.505H482.926C479.47 283.504 476.115 284.667 473.401 286.807C470.687 288.946 468.772 291.936 467.965 295.296L425.542 394.548C425.081 396.464 425.061 398.459 425.483 400.384C425.904 402.308 426.757 404.112 427.977 405.66C429.196 407.207 430.751 408.458 432.523 409.318C434.296 410.178 436.24 410.625 438.211 410.625H595.799C599.231 410.625 602.564 409.478 605.269 407.366C607.975 405.255 609.897 402.299 610.729 398.97Z" fill="white"/>
<path d="M610.729 398.97L649.472 299.696C649.952 297.775 649.988 295.77 649.577 293.833C649.167 291.896 648.32 290.078 647.102 288.517C645.884 286.957 644.326 285.694 642.547 284.826C640.768 283.957 638.814 283.505 636.834 283.505H482.926C479.47 283.504 476.115 284.667 473.401 286.807C470.687 288.946 468.772 291.936 467.965 295.296L425.542 394.548C425.081 396.464 425.061 398.459 425.483 400.384C425.904 402.308 426.757 404.112 427.977 405.66C429.196 407.207 430.751 408.458 432.523 409.318C434.296 410.178 436.24 410.625 438.211 410.625H595.799C599.231 410.625 602.564 409.478 605.269 407.366C607.975 405.255 609.897 402.299 610.729 398.97Z" fill="white"/>
<path d="M610.604 400.158L649.347 300.884C649.827 298.963 649.863 296.958 649.452 295.021C649.042 293.084 648.195 291.266 646.977 289.705C645.759 288.145 644.201 286.882 642.422 286.014C640.643 285.145 638.689 284.693 636.709 284.693H482.801C479.345 284.692 475.99 285.855 473.276 287.995C470.562 290.134 468.647 293.124 467.84 296.484L425.417 395.736C424.956 397.652 424.936 399.647 425.358 401.572C425.779 403.496 426.632 405.3 427.852 406.848C429.071 408.395 430.626 409.646 432.398 410.506C434.171 411.366 436.115 411.813 438.086 411.813H595.674C599.106 411.813 602.439 410.666 605.144 408.554C607.85 406.443 609.772 403.487 610.604 400.158V400.158Z" stroke="#274288" stroke-width="2.12469" stroke-linecap="square" stroke-linejoin="round"/>
<path d="M605.06 394.95L640.806 303.363C641.248 301.592 641.281 299.743 640.903 297.956C640.524 296.17 639.743 294.494 638.62 293.054C637.496 291.614 636.06 290.45 634.419 289.648C632.778 288.847 630.977 288.43 629.151 288.429H487.154C483.965 288.428 480.87 289.501 478.366 291.474C475.862 293.448 474.095 296.208 473.352 299.308L434.212 390.872C433.788 392.64 433.77 394.48 434.159 396.255C434.548 398.031 435.336 399.695 436.461 401.122C437.586 402.55 439.02 403.703 440.656 404.496C442.291 405.289 444.085 405.701 445.903 405.701H591.29C594.455 405.7 597.529 404.641 600.024 402.693C602.519 400.745 604.291 398.02 605.06 394.95Z" fill="#718EBF"/>
<path d="M465.595 340.61C465.442 337.218 467.184 334.383 469.484 334.277C471.783 334.171 473.773 336.839 473.925 340.23C473.946 340.753 473.921 341.277 473.848 341.795L502.515 357.301C503.414 354.8 505.189 353.045 507.294 352.95C508.654 352.888 509.92 353.55 510.961 354.634L516.745 346.404L521.82 339.229C522.351 338.462 522.929 337.678 523.492 336.91C523.163 335.882 522.971 334.815 522.921 333.737C522.708 328.974 525.153 324.995 528.364 324.827C531.576 324.66 534.333 328.361 534.593 333.062L560.222 341.181C561.334 336.845 564.104 333.727 567.493 333.571C572.105 333.36 576.097 338.708 576.408 345.515C576.42 345.785 576.391 346.035 576.39 346.304L593.469 351.705C593.52 351.723 593.583 351.742 593.63 351.761C594.548 352.099 595.293 352.788 595.703 353.675C596.113 354.563 596.153 355.577 595.816 356.494C595.478 357.412 594.79 358.157 593.902 358.567C593.014 358.977 592 359.017 591.083 358.68L575.128 352.804C573.751 355.951 571.401 358.084 568.622 358.208C564.214 358.412 560.412 353.525 559.816 347.173L533.977 337.657C533.069 340.213 531.301 341.991 529.172 342.092C527.958 342.114 526.784 341.657 525.905 340.82C525.659 341.126 525.422 341.436 525.179 341.746L519.711 348.624L512.69 357.395C513.191 358.64 513.48 359.961 513.543 361.301C513.755 366.064 511.314 370.041 508.099 370.211C504.885 370.382 502.074 366.615 501.856 361.851C501.833 361.154 501.869 360.456 501.966 359.765L473.497 343.397C472.851 345.221 471.592 346.494 470.074 346.563C467.743 346.671 465.75 344.005 465.595 340.61Z" fill="white"/>
<path d="M601.622 302.05H622.203C623.145 302.049 624.066 301.775 624.854 301.26C625.642 300.745 626.264 300.012 626.642 299.149C626.763 298.885 626.827 298.598 626.832 298.307C626.827 297.745 626.601 297.208 626.202 296.812C625.804 296.415 625.264 296.193 624.702 296.191H602.808C603.852 297.933 603.332 300.339 601.622 302.05Z" fill="#0EABEB"/>
<path d="M588.314 299.938C588.315 300.499 588.538 301.036 588.935 301.432C589.332 301.827 589.869 302.05 590.43 302.05H601.622C603.332 300.339 603.852 297.933 602.825 296.191H592.942C592.002 296.191 591.081 296.464 590.293 296.977C589.505 297.491 588.883 298.223 588.503 299.083C588.384 299.353 588.319 299.643 588.314 299.938Z" fill="#CEEDFF"/>
<path d="M603.523 302.297C603.053 302.86 602.463 303.311 601.797 303.617C601.131 303.923 600.404 304.075 599.671 304.064C598.938 304.053 598.217 303.878 597.56 303.552C596.904 303.226 596.328 302.757 595.876 302.18C595.152 301.272 594.779 300.133 594.823 298.973C594.851 298.285 595.02 297.61 595.318 296.99C595.739 296.134 596.399 295.419 597.217 294.931C598.035 294.442 598.978 294.2 599.93 294.235C600.848 294.264 601.738 294.551 602.5 295.064C603.261 295.576 603.863 296.293 604.236 297.132C604.62 297.973 604.759 298.906 604.635 299.822C604.511 300.739 604.13 301.601 603.535 302.31L603.523 302.297Z" fill="white"/>
<path opacity="0.72" d="M602.034 298.788C601.921 299.377 601.641 299.921 601.229 300.356C601.032 300.581 600.813 300.786 600.576 300.968C600.45 301.061 599.77 301.606 599.645 301.534C598.756 301.09 597.636 299.962 597.494 298.855C597.471 298.683 597.471 298.508 597.494 298.335C597.537 298.09 597.652 297.863 597.825 297.683C597.997 297.503 598.219 297.378 598.463 297.325C598.706 297.271 598.96 297.291 599.193 297.382C599.425 297.474 599.624 297.632 599.766 297.836C599.932 297.605 600.172 297.438 600.447 297.361C600.721 297.283 601.013 297.302 601.275 297.412C601.538 297.523 601.755 297.719 601.891 297.969C602.028 298.219 602.075 298.508 602.026 298.788H602.034Z" fill="#0EABEB"/>
<path d="M583.139 312.854C583.143 313.415 583.37 313.952 583.768 314.348C584.167 314.743 584.706 314.965 585.268 314.965H606.867C605.823 313.202 606.343 310.822 608.058 309.111H587.78C586.839 309.112 585.917 309.386 585.129 309.901C584.341 310.416 583.72 311.15 583.341 312.012C583.218 312.276 583.149 312.562 583.139 312.854Z" fill="#0EABEB"/>
<path d="M606.863 314.965H617.002C617.942 314.966 618.862 314.693 619.65 314.181C620.438 313.668 621.06 312.937 621.441 312.077C621.562 311.809 621.627 311.517 621.631 311.222C621.631 310.945 621.577 310.67 621.471 310.414C621.365 310.157 621.209 309.924 621.013 309.728C620.817 309.532 620.584 309.376 620.327 309.27C620.071 309.164 619.796 309.11 619.519 309.111H608.054C606.335 310.821 605.819 313.215 606.863 314.965Z" fill="#CEEDFF"/>
<path d="M615.027 314.952C614.557 315.515 613.967 315.966 613.301 316.272C612.635 316.577 611.908 316.73 611.175 316.719C610.442 316.708 609.721 316.533 609.064 316.207C608.408 315.881 607.832 315.412 607.38 314.835C606.656 313.926 606.282 312.788 606.327 311.627C606.355 310.94 606.523 310.265 606.822 309.644C607.243 308.789 607.903 308.074 608.721 307.585C609.539 307.097 610.482 306.855 611.434 306.89C612.352 306.919 613.242 307.206 614.004 307.719C614.765 308.231 615.367 308.948 615.74 309.787C616.124 310.628 616.263 311.561 616.139 312.477C616.015 313.394 615.633 314.256 615.039 314.965L615.027 314.952Z" fill="white"/>
<path opacity="0.72" d="M613.539 311.443C613.425 312.032 613.146 312.576 612.734 313.011C612.537 313.236 612.318 313.441 612.08 313.623C611.954 313.715 611.275 314.26 611.149 314.189C610.26 313.745 609.141 312.617 608.998 311.51C608.975 311.338 608.975 311.163 608.998 310.99C609.041 310.745 609.156 310.517 609.329 310.338C609.502 310.158 609.724 310.033 609.967 309.979C610.211 309.926 610.465 309.946 610.697 310.037C610.929 310.128 611.128 310.286 611.27 310.491C611.437 310.26 611.677 310.092 611.951 310.015C612.225 309.938 612.517 309.956 612.78 310.067C613.042 310.177 613.259 310.374 613.396 310.624C613.532 310.874 613.58 311.162 613.53 311.443H613.539Z" fill="#0EABEB"/>
<path d="M599.669 327.793H612.598C613.539 327.793 614.459 327.52 615.247 327.007C616.036 326.493 616.658 325.762 617.037 324.901C617.159 324.637 617.224 324.35 617.227 324.059C617.224 323.496 616.999 322.956 616.6 322.558C616.202 322.16 615.661 321.936 615.098 321.935H600.873C601.887 323.685 601.367 326.078 599.669 327.793Z" fill="#CEEDFF"/>
<path d="M578.713 325.69C578.716 326.249 578.94 326.785 579.337 327.179C579.733 327.573 580.27 327.794 580.829 327.793H599.669C601.366 326.078 601.874 323.685 600.873 321.935H583.342C582.4 321.935 581.479 322.209 580.691 322.724C579.903 323.239 579.281 323.973 578.903 324.835C578.782 325.104 578.717 325.395 578.713 325.69Z" fill="#0EABEB"/>
<path d="M601.222 327.607C600.752 328.17 600.162 328.621 599.496 328.926C598.829 329.232 598.103 329.385 597.37 329.374C596.637 329.362 595.916 329.187 595.259 328.861C594.602 328.535 594.027 328.067 593.575 327.49C592.851 326.581 592.477 325.443 592.522 324.282C592.55 323.594 592.718 322.919 593.017 322.299C593.438 321.444 594.097 320.729 594.916 320.24C595.734 319.751 596.676 319.51 597.629 319.545C598.546 319.574 599.437 319.861 600.198 320.373C600.96 320.886 601.562 321.603 601.934 322.442C602.319 323.283 602.457 324.216 602.334 325.132C602.21 326.048 601.828 326.911 601.234 327.62L601.222 327.607Z" fill="white"/>
<path opacity="0.72" d="M599.734 324.098C599.62 324.686 599.341 325.23 598.929 325.666C598.731 325.891 598.513 326.096 598.275 326.278C598.149 326.37 597.469 326.915 597.344 326.844C596.455 326.4 595.336 325.272 595.193 324.165C595.17 323.992 595.17 323.817 595.193 323.645C595.236 323.399 595.351 323.172 595.524 322.992C595.696 322.812 595.919 322.688 596.162 322.634C596.406 322.581 596.66 322.601 596.892 322.692C597.124 322.783 597.323 322.941 597.465 323.146C597.632 322.915 597.872 322.747 598.146 322.67C598.42 322.593 598.712 322.611 598.974 322.722C599.237 322.832 599.454 323.028 599.591 323.278C599.727 323.528 599.774 323.817 599.725 324.098H599.734Z" fill="#0EABEB"/>
<path d="M511.546 394.072H524.475C525.416 394.072 526.336 393.799 527.124 393.285C527.913 392.772 528.535 392.04 528.914 391.18C529.062 390.858 529.125 390.504 529.099 390.151C529.073 389.798 528.957 389.457 528.764 389.161C528.57 388.865 528.304 388.622 527.991 388.456C527.679 388.291 527.329 388.207 526.975 388.213H512.754C513.764 389.963 513.243 392.357 511.546 394.072Z" fill="#0EABEB"/>
<path d="M460.219 391.969C460.219 392.245 460.274 392.519 460.381 392.775C460.487 393.03 460.643 393.262 460.839 393.457C461.035 393.652 461.268 393.807 461.524 393.913C461.779 394.018 462.054 394.072 462.33 394.071H511.546C513.243 392.356 513.75 389.963 512.75 388.213H464.847C463.906 388.213 462.984 388.488 462.196 389.003C461.408 389.518 460.787 390.251 460.408 391.113C460.287 391.383 460.223 391.674 460.219 391.969Z" fill="#CEEDFF"/>
<path d="M512.639 394.332C512.169 394.895 511.579 395.346 510.913 395.652C510.246 395.957 509.52 396.11 508.787 396.099C508.054 396.087 507.333 395.912 506.676 395.586C506.019 395.26 505.444 394.792 504.992 394.215C504.268 393.306 503.894 392.168 503.939 391.007C503.967 390.319 504.135 389.644 504.434 389.024C504.855 388.169 505.514 387.454 506.333 386.965C507.151 386.477 508.093 386.235 509.046 386.27C509.963 386.299 510.854 386.586 511.615 387.099C512.377 387.611 512.979 388.328 513.351 389.167C513.736 390.008 513.874 390.941 513.751 391.857C513.627 392.773 513.245 393.636 512.651 394.345L512.639 394.332Z" fill="white"/>
<path opacity="0.72" d="M511.15 390.823C511.036 391.411 510.757 391.956 510.345 392.391C510.148 392.616 509.929 392.821 509.691 393.003C509.565 393.095 508.886 393.64 508.76 393.569C507.871 393.125 506.752 391.997 506.61 390.89C506.587 390.717 506.587 390.543 506.61 390.37C506.653 390.124 506.768 389.897 506.94 389.717C507.113 389.537 507.335 389.413 507.579 389.359C507.822 389.306 508.076 389.326 508.308 389.417C508.54 389.508 508.74 389.666 508.882 389.871C509.048 389.64 509.288 389.472 509.562 389.395C509.836 389.318 510.129 389.336 510.391 389.447C510.653 389.557 510.871 389.754 511.007 390.004C511.143 390.254 511.191 390.542 511.142 390.823H511.15Z" fill="#0EABEB"/>
<path d="M273.067 456.632C271.426 455.984 269.838 455.207 268.319 454.309C258.124 448.203 251.481 434.472 253.504 422.725C254.513 416.875 258.322 412.798 263.224 409.721C266.649 407.596 270.317 405.855 273.393 403.237C283.576 394.54 275.43 381.011 281.068 370.617C287.922 358.01 298.942 350.618 313.463 351.098C320.432 351.327 329.481 352.927 335.172 347.827C338.161 345.182 338.787 340.871 339.92 337.274C341.197 333.218 342.262 329.098 343.111 324.932C343.87 320.97 345.308 317.169 347.361 313.696C349.578 309.94 352.705 306.803 356.455 304.575C363.507 300.507 373.342 300.132 380.43 304.315C381.439 304.915 382.395 305.601 383.287 306.365C389.846 311.99 392.984 321.463 392.834 329.908" stroke="#274288" stroke-width="2.12469" stroke-miterlimit="10"/>
<path d="M379.512 319.606C379.878 322.093 381.39 324.385 384.075 325.072C387.108 325.844 388.717 328.797 389.572 331.764C390.787 336.116 390.476 340.753 388.69 344.904C387.033 348.81 384.079 353.28 379.085 353.981C369.947 355.303 365.398 351.433 365.398 351.433" stroke="#274288" stroke-width="2.12469" stroke-miterlimit="10"/>
<path d="M371.9 332.889C372.767 332.889 373.47 332.186 373.47 331.319C373.47 330.453 372.767 329.75 371.9 329.75C371.033 329.75 370.331 330.453 370.331 331.319C370.331 332.186 371.033 332.889 371.9 332.889Z" fill="#274288"/>
<path d="M385.702 331.852C386.569 331.852 387.271 331.15 387.271 330.283C387.271 329.416 386.569 328.714 385.702 328.714C384.835 328.714 384.132 329.416 384.132 330.283C384.132 331.15 384.835 331.852 385.702 331.852Z" fill="#274288"/>
<path d="M368.259 448.728C370.542 450.129 368.699 452.439 367.042 453.219C364.194 454.542 360.514 454.775 357.411 455.146C333.814 457.923 325.937 490.313 311.126 496.335C296.315 502.356 256.567 506.755 275.954 439.409C290.88 387.579 326.867 373.442 341.912 367.862C343.531 367.266 345.112 366.571 346.646 365.781C355.317 361.276 359.376 356.454 360.65 350.234C360.65 350.234 360.65 350.234 360.65 350.207C361.752 344.869 361.012 339.967 359.932 337.133C359.32 335.635 358.846 334.084 358.517 332.5C357.715 327.991 361.197 328.625 370.974 329.163C375.461 329.428 378.001 327.4 379.094 324.817C379.201 324.593 379.288 324.36 379.354 324.12C379.814 322.658 379.868 321.098 379.512 319.606" stroke="#274288" stroke-width="2.12469" stroke-miterlimit="10"/>
<path d="M378.662 331.698C378.662 331.698 380.311 337.724 380.143 338.614C379.976 339.505 377.864 338.817 377.864 338.817" stroke="#274288" stroke-width="2.12469" stroke-miterlimit="10"/>
<path d="M377.524 344.337C374.364 346.038 370.709 344.967 369.281 342.133" stroke="#274288" stroke-width="2.12469" stroke-miterlimit="10"/>
<path d="M374.377 337.675C377.321 334.896 377.509 330.314 374.797 327.441C372.084 324.567 367.499 324.491 364.555 327.27C361.611 330.05 361.423 334.632 364.135 337.505C366.848 340.378 371.433 340.454 374.377 337.675Z" stroke="#274288" stroke-width="2.12469" stroke-miterlimit="10"/>
<path d="M392.684 335.999C395.629 333.22 395.816 328.638 393.104 325.765C390.392 322.891 385.806 322.815 382.862 325.594C379.918 328.374 379.731 332.956 382.443 335.829C385.155 338.702 389.74 338.778 392.684 335.999Z" stroke="#274288" stroke-width="2.12469" stroke-miterlimit="10"/>
<path d="M387.968 325.831C389.203 325.829 390.392 326.298 391.293 327.142C392.194 327.987 392.739 329.144 392.817 330.376C392.896 331.723 392.449 333.047 391.571 334.071C390.693 335.095 389.451 335.737 388.109 335.864C387.954 335.864 387.796 335.864 387.642 335.864C386.407 335.867 385.218 335.398 384.317 334.555C383.416 333.711 382.871 332.556 382.793 331.324C382.712 329.977 383.158 328.651 384.037 327.626C384.915 326.602 386.157 325.958 387.5 325.831C387.655 325.831 387.814 325.831 387.968 325.831ZM387.968 324.769C387.783 324.769 387.593 324.769 387.403 324.796C385.786 324.949 384.291 325.724 383.233 326.957C382.175 328.19 381.636 329.786 381.73 331.408C381.829 332.912 382.498 334.322 383.6 335.35C384.703 336.378 386.156 336.946 387.663 336.94C387.849 336.94 388.038 336.94 388.228 336.913C389.846 336.762 391.342 335.987 392.4 334.754C393.457 333.52 393.994 331.923 393.896 330.301C393.799 328.797 393.131 327.388 392.029 326.359C390.927 325.331 389.475 324.763 387.968 324.769Z" fill="white"/>
<path d="M376.74 331.875L380.58 331.522" stroke="#274288" stroke-width="2.12469" stroke-miterlimit="10"/>
<path d="M369.665 327.361C370.941 327.348 372.174 327.827 373.108 328.697C374.041 329.568 374.605 330.763 374.681 332.038C374.764 333.425 374.305 334.79 373.4 335.845C372.496 336.901 371.216 337.563 369.832 337.693C369.674 337.693 369.511 337.715 369.352 337.715C368.075 337.727 366.842 337.247 365.908 336.376C364.974 335.505 364.409 334.309 364.331 333.034C364.25 331.647 364.71 330.283 365.614 329.229C366.519 328.175 367.797 327.513 369.18 327.383C369.342 327.374 369.504 327.374 369.665 327.383V327.361ZM369.665 326.32C369.471 326.32 369.277 326.329 369.083 326.347C367.423 326.502 365.889 327.296 364.805 328.562C363.72 329.829 363.171 331.467 363.273 333.131C363.374 334.672 364.059 336.117 365.189 337.17C366.319 338.223 367.808 338.806 369.352 338.8C369.542 338.8 369.736 338.8 369.93 338.773C371.589 338.617 373.123 337.822 374.207 336.556C375.291 335.291 375.841 333.653 375.739 331.989C375.64 330.448 374.955 329.004 373.826 327.95C372.698 326.897 371.209 326.314 369.665 326.32Z" fill="white"/>
<path d="M353.968 373.646C352.029 371.622 350.345 368.647 349.238 364.34" stroke="#274288" stroke-width="2.12469" stroke-miterlimit="10"/>
<path d="M371.899 373.593L374.038 364.345L376.36 354.374" stroke="#274288" stroke-width="2.12469" stroke-miterlimit="10"/>
<path d="M380.788 410.484C381.609 406.453 379.386 402.595 375.823 401.869C372.259 401.143 368.704 403.822 367.882 407.854C367.06 411.885 369.283 415.742 372.847 416.469C376.411 417.195 379.966 414.515 380.788 410.484Z" fill="#CEEDFF"/>
<path d="M516.996 476.027L513.381 496.243C513.28 496.81 512.983 497.323 512.541 497.693C512.099 498.063 511.542 498.266 510.966 498.266H492.059C491.477 498.267 490.914 498.06 490.47 497.684C490.026 497.308 489.73 496.786 489.635 496.212L486.303 476.027H516.996Z" stroke="#818194" stroke-width="2.12469" stroke-miterlimit="10"/>
<path d="M520.434 473.77C520.383 474.384 520.104 474.957 519.651 475.375C519.198 475.793 518.604 476.026 517.988 476.027H485.368C484.76 476.027 484.173 475.802 483.722 475.395C483.27 474.988 482.984 474.428 482.921 473.823C482.889 473.482 482.928 473.138 483.036 472.813C483.144 472.489 483.319 472.19 483.549 471.937C483.78 471.684 484.061 471.481 484.374 471.343C484.687 471.205 485.026 471.133 485.368 471.134H517.988C518.325 471.134 518.659 471.204 518.968 471.339C519.278 471.474 519.555 471.672 519.785 471.919C520.015 472.166 520.191 472.458 520.302 472.777C520.414 473.095 520.459 473.433 520.434 473.77V473.77Z" stroke="#818194" stroke-width="2.12469" stroke-miterlimit="10"/>
<path d="M502.705 471.099C502.705 470.063 505.35 457.161 503.146 445.722C501.947 439.445 499.302 433.613 493.977 430.417" stroke="#141414" stroke-width="2.12469" stroke-miterlimit="10"/>
<path d="M501.649 440.433C501.649 440.433 501.766 433.906 495.787 432.9" stroke="#39973D" stroke-width="0.881613" stroke-miterlimit="10"/>
<path d="M503.155 445.739C503.155 445.739 503.759 437.047 511.27 436.447" stroke="#39973D" stroke-width="0.881613" stroke-miterlimit="10"/>
<path d="M503.519 458.96C505.656 457.462 508.23 456.718 510.836 456.844" stroke="#39973D" stroke-width="0.881613" stroke-miterlimit="10"/>
<path d="M503.961 452.828C503.961 452.828 498.504 446.365 489.785 451.479" stroke="#39973D" stroke-width="0.881613" stroke-miterlimit="10"/>
<path d="M500.112 450.227C500.112 450.227 487.823 439.004 485.416 454.194C485.416 454.194 488.877 456.447 493.985 454.194C499.094 451.942 500.112 450.227 500.112 450.227Z" stroke="#39973D" stroke-width="0.881613" stroke-miterlimit="10"/>
<path d="M505.856 439.092C505.856 439.092 505.415 434.041 511.269 432.388C517.123 430.735 520.442 437.651 520.442 437.651C520.442 437.651 515.924 442.645 505.856 439.092Z" stroke="#39973D" stroke-width="0.881613" stroke-miterlimit="10"/>
<path d="M506.772 456.839C506.772 456.839 506.569 451.73 513.384 452.784C520.199 453.837 521.319 459.651 521.319 459.651C521.319 459.651 510.158 463.742 506.772 457.377" stroke="#39973D" stroke-width="0.881613" stroke-miterlimit="10"/>
<path d="M499.002 435.16C499.002 435.521 493.88 434.719 493.553 434.604C491.072 433.864 489.308 432.145 488.149 429.87C487.792 429.165 485.725 425.211 486.311 424.523C486.329 424.523 498.504 420.6 499.002 435.16Z" stroke="#39973D" stroke-width="0.881613" stroke-miterlimit="10"/>
<path d="M619.171 436.531C615.326 447.993 608.962 458.448 600.547 467.127C584.629 483.781 560.707 495.709 530.458 498.499V436.531H619.171Z" stroke="#818194" stroke-width="2.12469" stroke-miterlimit="10"/>
<path d="M600.547 467.132C584.629 483.786 560.707 495.714 530.458 498.505V467.132H600.547Z" stroke="#818194" stroke-width="2.12469" stroke-miterlimit="10"/>
<g filter="url(#filter0_d_812_84576)">
<path d="M608.625 477.151C620.061 477.151 629.333 467.88 629.333 456.443C629.333 445.006 620.061 435.735 608.625 435.735C597.188 435.735 587.917 445.006 587.917 456.443C587.917 467.88 597.188 477.151 608.625 477.151Z" fill="white"/>
</g>
<path d="M608.44 439.063C605.357 439.064 602.328 439.875 599.658 441.417C596.988 442.959 594.771 445.176 593.229 447.846C591.687 450.516 590.875 453.545 590.875 456.628C590.875 459.711 591.687 462.74 593.229 465.41C594.771 468.08 596.988 470.298 599.658 471.839C602.328 473.381 605.357 474.193 608.44 474.193C611.523 474.193 614.552 473.381 617.222 471.839C619.892 470.298 622.11 468.08 623.651 465.41C625.193 462.74 626.004 459.711 626.004 456.628C626.004 453.545 625.193 450.516 623.651 447.846C622.11 445.176 619.892 442.959 617.222 441.417C614.552 439.875 611.523 439.064 608.44 439.063Z" fill="#5678E9"/>
<path d="M612.873 451.832L612.382 451.486L617.377 444.318L617.869 444.664L612.873 451.832Z" fill="white"/>
<path d="M603.919 462.758L602.47 464.831L603.779 465.746L605.228 463.674L603.919 462.758Z" fill="white"/>
<path d="M613.72 453.708L606.898 463.461C606.534 463.98 605.931 464.187 605.549 463.921L603.611 462.567C603.23 462.301 603.218 461.664 603.581 461.143L610.403 451.39C610.768 450.871 611.37 450.663 611.752 450.93L613.69 452.285C614.071 452.55 614.083 453.187 613.72 453.708Z" fill="white"/>
<path d="M605.373 468.027C605.24 468.223 605.05 468.372 604.829 468.456C604.739 468.493 604.641 468.509 604.544 468.5C604.446 468.491 604.353 468.459 604.271 468.405L599.85 465.31C599.54 465.092 599.533 464.567 599.828 464.145C599.96 463.948 600.151 463.797 600.374 463.714C600.464 463.678 600.561 463.664 600.658 463.673C600.755 463.683 600.848 463.715 600.929 463.767L605.35 466.863C605.654 467.079 605.664 467.603 605.373 468.027Z" fill="white"/>
<path d="M457.139 267.365C464.334 267.365 470.166 261.533 470.166 254.338C470.166 247.144 464.334 241.312 457.139 241.312C449.945 241.312 444.113 247.144 444.113 254.338C444.113 261.533 449.945 267.365 457.139 267.365Z" fill="#5678E9"/>
<path d="M451.72 254.881C453.508 254.881 454.958 253.432 454.958 251.644C454.958 249.856 453.508 248.407 451.72 248.407C449.933 248.407 448.483 249.856 448.483 251.644C448.483 253.432 449.933 254.881 451.72 254.881Z" fill="white"/>
<path d="M272.631 482.118C265.805 481.218 259.393 480.128 253.341 478.872C184.239 458.586 143.002 314.206 233.008 285.603" stroke="#818194" stroke-width="2.12469" stroke-miterlimit="10"/>
<g filter="url(#filter1_d_812_84576)">
<path d="M192.07 345.582C200.384 343.814 205.69 335.64 203.921 327.326C202.152 319.013 193.979 313.707 185.665 315.476C177.351 317.245 172.046 325.418 173.815 333.732C175.583 342.046 183.757 347.351 192.07 345.582Z" fill="#5678E9"/>
</g>
<g filter="url(#filter2_d_812_84576)">
<path d="M176.906 333.055L167.409 335.977L177.514 336.707L176.906 333.055Z" fill="#5678E9"/>
</g>
<path d="M189.143 340.105L188.697 339.813C188.322 339.567 179.508 333.743 179.508 328.492C179.508 324.756 182.162 322.802 184.785 322.802C186.461 322.802 188.031 323.584 189.142 324.936C190.25 323.587 191.823 322.802 193.502 322.802C196.124 322.802 198.778 324.756 198.778 328.492C198.778 333.743 189.965 339.567 189.59 339.813L189.143 340.105Z" fill="#0EABEB"/>
<g opacity="0.5">
<path d="M193.936 322.822C194.215 322.909 194.477 323.039 194.714 323.229C195.137 323.566 195.42 324.05 195.621 324.551C196.359 326.391 196.075 328.508 195.325 330.343C194.574 332.177 193.394 333.796 192.292 335.444C191.266 336.978 190.293 338.554 189.22 340.054L189.589 339.812C189.964 339.567 198.778 333.743 198.778 328.491C198.778 324.963 196.409 323.025 193.936 322.822Z" fill="#0EABEB"/>
</g>
<path d="M182.229 331.228H189.031L189.915 327.816L190.398 334.132L191.294 328.919L191.88 332.4L192.708 327.092L193.225 331.297H195.638" stroke="white" stroke-width="0.854505" stroke-miterlimit="10" stroke-linecap="round" stroke-linejoin="round"/>
<path d="M210.947 459.487C218.141 459.487 223.973 453.655 223.973 446.46C223.973 439.266 218.141 433.434 210.947 433.434C203.753 433.434 197.92 439.266 197.92 446.46C197.92 453.655 203.753 459.487 210.947 459.487Z" fill="#5678E9"/>
<path d="M205.528 447.003C207.316 447.003 208.765 445.554 208.765 443.766C208.765 441.978 207.316 440.529 205.528 440.529C203.74 440.529 202.291 441.978 202.291 443.766C202.291 445.554 203.74 447.003 205.528 447.003Z" fill="white"/>
<g filter="url(#filter3_d_812_84576)">
<circle cx="115" cy="365.091" r="35" fill="white"/>
</g>
<path d="M124.535 366.572C121.287 366.572 118.645 369.204 118.645 372.439V376.51C115.538 377.494 116.195 382.117 119.504 382.149C122.815 382.112 123.475 377.502 120.366 376.51V372.439C120.366 370.148 122.237 368.284 124.534 368.284C126.833 368.284 128.703 370.148 128.703 372.439V378.602C128.223 390.226 111.597 390.239 111.111 378.602V371.76C111.573 371.652 111.983 371.392 112.277 371.022C112.57 370.652 112.729 370.195 112.728 369.724V368.928C112.728 368.38 113.055 367.901 113.537 367.738C116.792 366.609 119.255 363.819 119.952 360.455L120.951 355.689C121.067 355.131 121 354.55 120.758 354.034C120.516 353.517 120.112 353.092 119.608 352.822L120.317 347.471C120.822 344.237 118.054 341.081 114.762 341.156H112.838C111.703 341.183 111.706 342.844 112.838 342.868H114.762C117.043 342.817 118.961 345.005 118.611 347.246L117.908 352.539C116.799 352.721 115.905 353.626 115.698 354.789L115.061 358.512C113.896 364.963 106.692 364.956 105.512 358.512L104.883 354.798C104.685 353.636 103.81 352.738 102.709 352.539L102.007 347.246C101.935 346.699 101.981 346.142 102.142 345.614C102.303 345.086 102.576 344.597 102.942 344.182C103.305 343.77 103.753 343.439 104.256 343.212C104.759 342.985 105.304 342.868 105.856 342.868H107.779C108.911 342.856 108.909 341.171 107.779 341.156H105.856C102.564 341.083 99.7936 344.235 100.301 347.47L101.008 352.805C99.9692 353.319 99.3828 354.563 99.6308 355.688L100.63 360.455C101.336 363.818 103.79 366.608 107.045 367.738C107.527 367.9 107.854 368.379 107.854 368.927V369.723C107.854 370.682 108.501 371.489 109.389 371.743V378.602C109.961 392.494 129.845 392.511 130.425 378.602V372.44C130.425 369.204 127.782 366.572 124.535 366.572Z" fill="url(#paint0_linear_812_84576)"/>
<path opacity="0.2" d="M639.155 377.909C635.385 377.791 632.433 374.646 632.552 370.877C632.671 367.107 635.815 364.155 639.585 364.274C643.354 364.392 646.307 367.537 646.188 371.306C646.069 375.076 642.924 378.028 639.155 377.909ZM679.931 379.195C676.161 379.076 673.209 375.931 673.328 372.162C673.447 368.392 676.592 365.44 680.361 365.559C684.131 365.678 687.083 368.822 686.964 372.592C686.845 376.361 683.7 379.314 679.931 379.195ZM720.707 380.48C716.938 380.361 713.985 377.217 714.104 373.447C714.223 369.678 717.368 366.725 721.137 366.844C724.907 366.963 727.859 370.108 727.74 373.877C727.621 377.647 724.477 380.599 720.707 380.48ZM761.483 381.765C757.714 381.647 754.762 378.502 754.88 374.733C754.999 370.963 758.144 368.011 761.913 368.13C765.683 368.248 768.635 371.393 768.516 375.162C768.381 378.915 765.237 381.867 761.483 381.765ZM640.441 337.133C636.671 337.014 633.719 333.87 633.838 330.1C633.957 326.331 637.102 323.379 640.871 323.497C644.641 323.616 647.593 326.761 647.474 330.53C647.355 334.3 644.21 337.252 640.441 337.133ZM681.217 338.419C677.448 338.3 674.495 335.155 674.614 331.386C674.733 327.616 677.878 324.664 681.647 324.783C685.417 324.902 688.369 328.046 688.25 331.816C688.131 335.585 684.987 338.537 681.217 338.419ZM721.993 339.704C718.224 339.585 715.272 336.441 715.391 332.671C715.509 328.902 718.654 325.949 722.424 326.068C726.193 326.187 729.145 329.331 729.026 333.101C728.907 336.87 725.763 339.823 721.993 339.704ZM762.77 340.989C759 340.87 756.048 337.726 756.167 333.956C756.286 330.187 759.43 327.235 763.2 327.353C766.969 327.472 769.921 330.617 769.803 334.386C769.684 338.156 766.539 341.108 762.77 340.989ZM600.951 295.072C597.182 294.953 594.229 291.808 594.348 288.039C594.467 284.269 597.612 281.317 601.381 281.436C605.151 281.555 608.103 284.699 607.984 288.469C607.865 292.238 604.721 295.191 600.951 295.072ZM641.727 296.357C637.958 296.238 635.006 293.094 635.124 289.324C635.243 285.555 638.388 282.602 642.157 282.721C645.927 282.84 648.879 285.985 648.76 289.754C648.641 293.524 645.497 296.476 641.727 296.357ZM682.503 297.642C678.734 297.524 675.782 294.379 675.901 290.61C676.02 286.84 679.164 283.888 682.934 284.007C686.703 284.125 689.655 287.27 689.536 291.039C689.417 294.809 686.273 297.761 682.503 297.642ZM723.28 298.928C719.51 298.809 716.558 295.664 716.677 291.895C716.796 288.125 719.94 285.173 723.71 285.292C727.479 285.411 730.432 288.555 730.313 292.325C730.194 296.094 727.049 299.047 723.28 298.928ZM764.056 300.213C760.286 300.094 757.334 296.95 757.453 293.18C757.572 289.411 760.716 286.458 764.486 286.577C768.255 286.696 771.208 289.841 771.089 293.61C770.97 297.38 767.808 300.348 764.056 300.213ZM602.237 254.296C598.468 254.177 595.516 251.032 595.635 247.263C595.753 243.493 598.898 240.541 602.668 240.66C606.437 240.779 609.389 243.923 609.27 247.693C609.151 251.462 606.007 254.414 602.237 254.296ZM643.014 255.581C639.244 255.462 636.292 252.318 636.411 248.548C636.53 244.779 639.674 241.826 643.444 241.945C647.213 242.064 650.165 245.208 650.047 248.978C649.928 252.747 646.783 255.7 643.014 255.581ZM683.79 256.866C680.02 256.747 677.068 253.603 677.187 249.833C677.306 246.064 680.45 243.112 684.22 243.23C687.989 243.349 690.942 246.494 690.823 250.263C690.704 254.033 687.559 256.985 683.79 256.866ZM724.566 258.152C720.796 258.033 717.844 254.888 717.963 251.119C718.082 247.349 721.227 244.397 724.996 244.516C728.766 244.635 731.718 247.779 731.599 251.549C731.48 255.318 728.319 258.286 724.566 258.152ZM765.342 259.437C761.573 259.318 758.62 256.174 758.739 252.404C758.858 248.635 762.003 245.682 765.772 245.801C769.542 245.92 772.494 249.064 772.375 252.834C772.256 256.603 769.095 259.572 765.342 259.437ZM603.524 213.519C599.754 213.401 596.802 210.256 596.921 206.487C597.04 202.717 600.184 199.765 603.954 199.884C607.723 200.003 610.676 203.147 610.557 206.916C610.438 210.686 607.293 213.638 603.524 213.519ZM644.3 214.805C640.53 214.686 637.578 211.541 637.697 207.772C637.816 204.002 640.961 201.05 644.73 201.169C648.5 201.288 651.452 204.432 651.333 208.202C651.214 211.971 648.069 214.924 644.3 214.805ZM685.076 216.09C681.307 215.971 678.354 212.827 678.473 209.057C678.592 205.288 681.737 202.336 685.506 202.454C689.276 202.573 692.228 205.718 692.109 209.487C691.99 213.257 688.829 216.225 685.076 216.09ZM725.852 217.375C722.083 217.257 719.131 214.112 719.249 210.343C719.368 206.573 722.513 203.621 726.282 203.74C730.052 203.858 733.004 207.003 732.885 210.772C732.766 214.542 729.605 217.51 725.852 217.375ZM766.612 218.677C762.842 218.558 759.89 215.413 760.009 211.644C760.128 207.874 763.272 204.922 767.042 205.041C770.811 205.16 773.763 208.304 773.644 212.074C773.542 215.827 770.381 218.795 766.612 218.677Z" fill="#A7A7A7"/>
<g filter="url(#filter4_d_812_84576)">
<circle cx="748" cy="209.091" r="37" fill="white"/>
</g>
<path d="M769.16 219.166H739.477C738.649 219.166 737.971 219.843 737.971 220.671V221.191C737.971 222.019 738.649 222.696 739.477 222.696H769.168C769.996 222.696 770.673 222.019 770.673 221.191V220.671C770.666 219.843 769.996 219.166 769.16 219.166ZM768.618 232.204H725.03C724.616 232.204 724.277 232.543 724.277 232.957C724.277 233.371 724.616 233.71 725.03 233.71H768.618C769.032 233.71 769.371 233.371 769.371 232.957C769.371 232.543 769.032 232.204 768.618 232.204ZM730.119 227.273C729.284 227.273 728.606 227.951 728.606 228.786V230.699H740.026V228.786C740.026 227.951 739.349 227.273 738.513 227.273H730.119Z" fill="url(#paint1_linear_812_84576)"/>
<path d="M742.759 217.66C744.538 217.66 745.981 216.217 745.981 214.438C745.981 212.658 744.538 211.216 742.759 211.216C740.979 211.216 739.537 212.658 739.537 214.438C739.537 216.217 740.979 217.66 742.759 217.66Z" fill="url(#paint2_linear_812_84576)"/>
<path d="M755.948 195.475C756.099 195.249 756.362 195.128 756.641 195.151C756.912 195.181 757.153 195.354 757.258 195.61L758.387 198.267L759.133 196.288C759.231 196.024 759.479 195.836 759.758 195.806C760.044 195.776 760.315 195.911 760.473 196.152L761.497 197.748L761.624 197.605C761.694 197.524 761.781 197.459 761.879 197.415C761.976 197.371 762.082 197.348 762.189 197.349H764.613V194.594H752.847V197.311H754.706L755.948 195.475Z" fill="url(#paint3_linear_812_84576)"/>
<path d="M764.613 198.847H762.528L761.963 199.487C761.887 199.576 761.79 199.645 761.681 199.69C761.573 199.734 761.455 199.752 761.338 199.743C761.221 199.735 761.108 199.699 761.007 199.639C760.906 199.579 760.821 199.496 760.759 199.396L760.006 198.222L759.125 200.556C759.02 200.842 758.741 201.038 758.432 201.045H758.417C758.116 201.045 757.845 200.864 757.725 200.586L756.407 197.469L755.715 198.486C755.572 198.689 755.338 198.817 755.09 198.817H752.832V201.527H764.598V198.847H764.613Z" fill="url(#paint4_linear_812_84576)"/>
<path d="M750.588 205.299H766.879C767.714 205.299 768.392 204.621 768.392 203.786V192.32C768.392 191.485 767.714 190.807 766.879 190.807H765.719V186.283C765.719 185.869 765.381 185.53 764.967 185.53C764.553 185.53 764.214 185.869 764.214 186.283V190.815H753.253V186.283C753.253 185.869 752.914 185.53 752.5 185.53C752.086 185.53 751.747 185.869 751.747 186.283V190.815H750.588C749.752 190.815 749.075 191.492 749.075 192.328V203.793C749.075 204.621 749.752 205.299 750.588 205.299ZM751.341 193.833C751.341 193.419 751.679 193.081 752.093 193.081H765.366C765.78 193.081 766.118 193.419 766.118 193.833V202.272C766.118 202.686 765.78 203.025 765.366 203.025H752.093C751.679 203.025 751.341 202.686 751.341 202.272V193.833ZM728.869 226.054C729.246 225.866 729.675 225.768 730.126 225.768H732.942C731.022 223.14 729.803 219.015 729.803 214.28C729.803 208.506 731.617 203.635 734.304 201.286H731.685C728.011 201.286 725.03 207.105 725.03 214.28C725.03 219.489 726.603 223.984 728.869 226.054Z" fill="url(#paint5_linear_812_84576)"/>
<path d="M731.572 217.863H734.583C734.342 216.764 734.207 215.552 734.207 214.28C734.207 209.718 735.931 205.863 737.971 205.863C739.319 205.863 740.523 207.534 741.186 209.981C741.675 209.8 742.209 209.703 742.759 209.703C743.278 209.703 743.775 209.785 744.242 209.943C743.331 204.9 740.869 201.286 737.971 201.286C734.29 201.286 731.309 207.105 731.309 214.28C731.309 215.522 731.406 216.726 731.572 217.863ZM742.255 224.202H740.485C736.729 224.39 735.547 220.935 734.997 219.369H731.843C732.438 222.116 733.514 224.382 734.854 225.768H738.521C739.213 225.768 739.853 226.001 740.365 226.4C741.058 225.873 741.697 225.128 742.255 224.202ZM755.474 224.202L751.077 230.699H758.342L762.731 224.202H755.474ZM767.587 217.66C767.587 215.703 766.194 214.061 764.35 213.685L761.933 213.211L758.756 212.435C756.039 211.773 753.208 211.78 750.49 212.45L747.328 213.233C747.426 213.617 747.487 214.016 747.487 214.43C747.487 215.68 746.997 216.809 746.207 217.652H767.587V217.66Z" fill="url(#paint6_linear_812_84576)"/>
<g filter="url(#filter5_d_812_84576)">
<circle cx="180" cy="126.091" r="57" fill="white"/>
</g>
<g clip-path="url(#clip0_812_84576)">
<path d="M214.02 122.111C214.02 113.024 210.482 104.481 204.056 98.0551C197.631 91.6294 189.087 88.0908 180 88.0908C170.913 88.0908 162.37 91.6296 155.944 98.0551C149.518 104.481 145.98 113.024 145.98 122.111V125.143H150.433V122.111C150.433 105.808 163.697 92.5439 180 92.5439C196.303 92.5439 209.567 105.808 209.567 122.111V125.143H214.02V122.111ZM142 129.448V152.727H150.947C154.353 152.727 157.113 149.967 157.113 146.561V135.614C157.113 132.209 154.353 129.448 150.947 129.448H142Z" fill="url(#paint7_linear_812_84576)"/>
<path d="M174.163 140.511V129.401H163.053V117.727H174.163V106.617H185.837V117.727H196.947V129.401H185.837V140.511H174.163ZM218 129.448H209.053C205.648 129.448 202.887 132.209 202.887 135.614V146.561C202.887 149.11 204.433 151.296 206.637 152.236V153.334C206.637 156.81 203.809 159.638 200.333 159.638H188.464V158.226C188.464 154.992 185.833 152.361 182.599 152.361H176.635C173.401 152.361 170.77 154.992 170.77 158.226C170.77 161.46 173.401 164.091 176.635 164.091H200.334C206.265 164.091 211.09 159.266 211.09 153.334V152.728H218V129.448Z" fill="url(#paint8_linear_812_84576)"/>
</g>
<defs>
<filter id="filter0_d_812_84576" x="550.939" y="398.757" width="115.372" height="115.372" filterUnits="userSpaceOnUse" color-interpolation-filters="sRGB">
<feFlood flood-opacity="0" result="BackgroundImageFix"/>
<feColorMatrix in="SourceAlpha" type="matrix" values="0 0 0 0 0 0 0 0 0 0 0 0 0 0 0 0 0 0 127 0" result="hardAlpha"/>
<feOffset/>
<feGaussianBlur stdDeviation="18.4891"/>
<feComposite in2="hardAlpha" operator="out"/>
<feColorMatrix type="matrix" values="0 0 0 0 0 0 0 0 0 0 0 0 0 0 0 0 0 0 0.1 0"/>
<feBlend mode="normal" in2="BackgroundImageFix" result="effect1_dropShadow_812_84576"/>
<feBlend mode="normal" in="SourceGraphic" in2="effect1_dropShadow_812_84576" result="shape"/>
</filter>
<filter id="filter1_d_812_84576" x="65.6985" y="207.36" width="246.338" height="246.339" filterUnits="userSpaceOnUse" color-interpolation-filters="sRGB">
<feFlood flood-opacity="0" result="BackgroundImageFix"/>
<feColorMatrix in="SourceAlpha" type="matrix" values="0 0 0 0 0 0 0 0 0 0 0 0 0 0 0 0 0 0 127 0" result="hardAlpha"/>
<feOffset/>
<feGaussianBlur stdDeviation="53.888"/>
<feComposite in2="hardAlpha" operator="out"/>
<feColorMatrix type="matrix" values="0 0 0 0 0 0 0 0 0 0 0 0 0 0 0 0 0 0 0.1 0"/>
<feBlend mode="normal" in2="BackgroundImageFix" result="effect1_dropShadow_812_84576"/>
<feBlend mode="normal" in="SourceGraphic" in2="effect1_dropShadow_812_84576" result="shape"/>
</filter>
<filter id="filter2_d_812_84576" x="59.6331" y="225.279" width="225.657" height="219.205" filterUnits="userSpaceOnUse" color-interpolation-filters="sRGB">
<feFlood flood-opacity="0" result="BackgroundImageFix"/>
<feColorMatrix in="SourceAlpha" type="matrix" values="0 0 0 0 0 0 0 0 0 0 0 0 0 0 0 0 0 0 127 0" result="hardAlpha"/>
<feOffset/>
<feGaussianBlur stdDeviation="53.888"/>
<feComposite in2="hardAlpha" operator="out"/>
<feColorMatrix type="matrix" values="0 0 0 0 0 0 0 0 0 0 0 0 0 0 0 0 0 0 0.1 0"/>
<feBlend mode="normal" in2="BackgroundImageFix" result="effect1_dropShadow_812_84576"/>
<feBlend mode="normal" in="SourceGraphic" in2="effect1_dropShadow_812_84576" result="shape"/>
</filter>
<filter id="filter3_d_812_84576" x="0" y="250.091" width="230" height="230" filterUnits="userSpaceOnUse" color-interpolation-filters="sRGB">
<feFlood flood-opacity="0" result="BackgroundImageFix"/>
<feColorMatrix in="SourceAlpha" type="matrix" values="0 0 0 0 0 0 0 0 0 0 0 0 0 0 0 0 0 0 127 0" result="hardAlpha"/>
<feOffset/>
<feGaussianBlur stdDeviation="40"/>
<feComposite in2="hardAlpha" operator="out"/>
<feColorMatrix type="matrix" values="0 0 0 0 0 0 0 0 0 0 0 0 0 0 0 0 0 0 0.1 0"/>
<feBlend mode="normal" in2="BackgroundImageFix" result="effect1_dropShadow_812_84576"/>
<feBlend mode="normal" in="SourceGraphic" in2="effect1_dropShadow_812_84576" result="shape"/>
</filter>
<filter id="filter4_d_812_84576" x="631" y="92.0908" width="234" height="234" filterUnits="userSpaceOnUse" color-interpolation-filters="sRGB">
<feFlood flood-opacity="0" result="BackgroundImageFix"/>
<feColorMatrix in="SourceAlpha" type="matrix" values="0 0 0 0 0 0 0 0 0 0 0 0 0 0 0 0 0 0 127 0" result="hardAlpha"/>
<feOffset/>
<feGaussianBlur stdDeviation="40"/>
<feComposite in2="hardAlpha" operator="out"/>
<feColorMatrix type="matrix" values="0 0 0 0 0 0 0 0 0 0 0 0 0 0 0 0 0 0 0.1 0"/>
<feBlend mode="normal" in2="BackgroundImageFix" result="effect1_dropShadow_812_84576"/>
<feBlend mode="normal" in="SourceGraphic" in2="effect1_dropShadow_812_84576" result="shape"/>
</filter>
<filter id="filter5_d_812_84576" x="53.9091" y="-8.39233e-05" width="252.182" height="252.182" filterUnits="userSpaceOnUse" color-interpolation-filters="sRGB">
<feFlood flood-opacity="0" result="BackgroundImageFix"/>
<feColorMatrix in="SourceAlpha" type="matrix" values="0 0 0 0 0 0 0 0 0 0 0 0 0 0 0 0 0 0 127 0" result="hardAlpha"/>
<feOffset/>
<feGaussianBlur stdDeviation="34.5455"/>
<feComposite in2="hardAlpha" operator="out"/>
<feColorMatrix type="matrix" values="0 0 0 0 0 0 0 0 0 0 0 0 0 0 0 0 0 0 0.1 0"/>
<feBlend mode="normal" in2="BackgroundImageFix" result="effect1_dropShadow_812_84576"/>
<feBlend mode="normal" in="SourceGraphic" in2="effect1_dropShadow_812_84576" result="shape"/>
</filter>
<linearGradient id="paint0_linear_812_84576" x1="115" y1="341.155" x2="115" y2="389.027" gradientUnits="userSpaceOnUse">
<stop stop-color="#0EABEB"/>
<stop offset="1" stop-color="#5678E9"/>
</linearGradient>
<linearGradient id="paint1_linear_812_84576" x1="747.475" y1="219.166" x2="747.475" y2="233.71" gradientUnits="userSpaceOnUse">
<stop stop-color="#0EABEB"/>
<stop offset="1" stop-color="#5678E9"/>
</linearGradient>
<linearGradient id="paint2_linear_812_84576" x1="742.759" y1="211.216" x2="742.759" y2="217.66" gradientUnits="userSpaceOnUse">
<stop stop-color="#0EABEB"/>
<stop offset="1" stop-color="#5678E9"/>
</linearGradient>
<linearGradient id="paint3_linear_812_84576" x1="758.73" y1="194.594" x2="758.73" y2="198.267" gradientUnits="userSpaceOnUse">
<stop stop-color="#0EABEB"/>
<stop offset="1" stop-color="#5678E9"/>
</linearGradient>
<linearGradient id="paint4_linear_812_84576" x1="758.722" y1="197.469" x2="758.722" y2="201.527" gradientUnits="userSpaceOnUse">
<stop stop-color="#0EABEB"/>
<stop offset="1" stop-color="#5678E9"/>
</linearGradient>
<linearGradient id="paint5_linear_812_84576" x1="746.711" y1="185.53" x2="746.711" y2="226.054" gradientUnits="userSpaceOnUse">
<stop stop-color="#0EABEB"/>
<stop offset="1" stop-color="#5678E9"/>
</linearGradient>
<linearGradient id="paint6_linear_812_84576" x1="749.448" y1="201.286" x2="749.448" y2="230.699" gradientUnits="userSpaceOnUse">
<stop stop-color="#0EABEB"/>
<stop offset="1" stop-color="#5678E9"/>
</linearGradient>
<linearGradient id="paint7_linear_812_84576" x1="178.01" y1="88.0908" x2="178.01" y2="152.727" gradientUnits="userSpaceOnUse">
<stop stop-color="#0EABEB"/>
<stop offset="1" stop-color="#5678E9"/>
</linearGradient>
<linearGradient id="paint8_linear_812_84576" x1="190.527" y1="106.617" x2="190.527" y2="164.091" gradientUnits="userSpaceOnUse">
<stop stop-color="#0EABEB"/>
<stop offset="1" stop-color="#5678E9"/>
</linearGradient>
<clipPath id="clip0_812_84576">
<rect width="76" height="76" fill="white" transform="translate(142 88.0908)"/>
</clipPath>
</defs>
</svg>
