<svg width="25" height="24" viewBox="0 0 25 24" fill="none" xmlns="http://www.w3.org/2000/svg">
<path d="M12.1336 8.69192C14.5338 8.69192 16.4793 6.74616 16.4793 4.34596C16.4793 1.94576 14.5338 0 12.1336 0C9.73342 0 7.78765 1.94576 7.78765 4.34596C7.78765 6.74616 9.73342 8.69192 12.1336 8.69192Z" fill="#5678E9"/>
<path d="M0.00262185 23.9998C-0.0309414 22.3852 0.25803 20.7801 0.852718 19.2786C1.44741 17.7771 2.33595 16.4095 3.46598 15.2557C4.596 14.1019 5.9448 13.1853 7.43361 12.5595C8.92241 11.9337 10.5212 11.6114 12.1361 11.6114C13.7511 11.6114 15.3499 11.9337 16.8387 12.5595C18.3275 13.1853 19.6763 14.1019 20.8063 15.2557C21.9363 16.4095 22.8249 17.7771 23.4196 19.2786C24.0143 20.7801 24.3032 22.3852 24.2697 23.9998H0.00262185Z" fill="#5678E9"/>
</svg>
