<svg width="169" height="172" viewBox="0 0 169 172" fill="none" xmlns="http://www.w3.org/2000/svg">
<path opacity="0.2" d="M42.2352 3.6366C38.6823 3.74859 35.8997 6.71237 36.0118 10.2653C36.1239 13.8182 39.0877 16.6008 42.6406 16.4888C46.1935 16.3768 48.9761 13.413 48.864 9.86014C48.752 6.30724 45.7881 3.5246 42.2352 3.6366ZM80.6683 2.42512C77.1154 2.53711 74.3329 5.50087 74.4449 9.05377C74.557 12.6067 77.5209 15.3893 81.0738 15.2773C84.6267 15.1653 87.4092 12.2016 87.2972 8.64867C87.1851 5.09577 84.2212 2.31312 80.6683 2.42512ZM119.101 1.21365C115.549 1.32564 112.766 4.28942 112.878 7.84232C112.99 11.3952 115.954 14.1779 119.507 14.0659C123.06 13.9539 125.842 10.9901 125.73 7.4372C125.618 3.8843 122.654 1.10165 119.101 1.21365ZM157.535 0.00218411C153.982 0.114181 151.199 3.07796 151.311 6.63086C151.423 10.1838 154.387 12.9664 157.94 12.8544C161.493 12.7424 164.275 9.77864 164.163 6.22574C164.036 2.68877 161.073 -0.09388 157.535 0.00218411ZM43.4476 42.0697C39.8947 42.1817 37.1121 45.1454 37.2242 48.6983C37.3363 52.2512 40.3001 55.0339 43.853 54.9219C47.4059 54.8099 50.1885 51.8461 50.0764 48.2932C49.9643 44.7403 47.0005 41.9577 43.4476 42.0697ZM81.8807 40.8582C78.3278 40.9702 75.5452 43.934 75.6573 47.4869C75.7694 51.0398 78.7332 53.8224 82.2861 53.7104C85.839 53.5984 88.6216 50.6347 88.5095 47.0818C88.3975 43.5289 85.4336 40.7462 81.8807 40.8582ZM120.314 39.6467C116.761 39.7587 113.978 42.7225 114.09 46.2754C114.203 49.8283 117.166 52.6109 120.719 52.4989C124.272 52.3869 127.055 49.4232 126.943 45.8703C126.831 42.3174 123.867 39.5347 120.314 39.6467ZM158.747 38.4353C155.194 38.5473 152.411 41.511 152.524 45.0639C152.636 48.6168 155.599 51.3995 159.152 51.2875C162.705 51.1755 165.488 48.2117 165.376 44.6588C165.264 41.1059 162.3 38.3233 158.747 38.4353ZM6.22686 81.7142C2.67396 81.8262 -0.10862 84.79 0.00345606 88.3429C0.115533 91.8958 3.07939 94.6784 6.63229 94.5664C10.1852 94.4544 12.9678 91.4907 12.8557 87.9378C12.7436 84.3849 9.77976 81.6022 6.22686 81.7142ZM44.66 80.5027C41.1071 80.6147 38.3245 83.5785 38.4366 87.1314C38.5486 90.6843 41.5125 93.467 45.0654 93.355C48.6183 93.243 51.4009 90.2792 51.2888 86.7263C51.1767 83.1734 48.2129 80.3907 44.66 80.5027ZM83.0931 79.2913C79.5402 79.4033 76.7576 82.3671 76.8697 85.92C76.9818 89.4728 79.9456 92.2555 83.4985 92.1435C87.0514 92.0315 89.834 89.0677 89.7219 85.5148C89.6098 81.9619 86.646 79.1793 83.0931 79.2913ZM121.526 78.0798C117.973 78.1918 115.191 81.1556 115.303 84.7085C115.415 88.2614 118.379 91.0441 121.932 90.9321C125.485 90.8201 128.267 87.8563 128.155 84.3034C128.043 80.7505 125.079 77.9678 121.526 78.0798ZM159.959 76.8684C156.406 76.9804 153.624 79.9441 153.736 83.497C153.848 87.0499 156.812 89.8325 160.365 89.7205C163.918 89.6086 166.7 86.6448 166.588 83.0919C166.476 79.539 163.496 76.7414 159.959 76.8684ZM7.43924 120.147C3.88634 120.259 1.10377 123.223 1.21584 126.776C1.32792 130.329 4.29178 133.112 7.84468 133C11.3976 132.888 14.1801 129.924 14.0681 126.371C13.956 122.818 10.9921 120.035 7.43924 120.147ZM45.8724 118.936C42.3195 119.048 39.5369 122.012 39.649 125.565C39.761 129.117 42.7249 131.9 46.2778 131.788C49.8307 131.676 52.6133 128.712 52.5012 125.159C52.3891 121.606 49.4253 118.824 45.8724 118.936ZM84.3055 117.724C80.7526 117.836 77.97 120.8 78.0821 124.353C78.1941 127.906 81.158 130.689 84.7109 130.577C88.2638 130.465 91.0464 127.501 90.9343 123.948C90.8222 120.395 87.8584 117.612 84.3055 117.724ZM122.739 116.513C119.186 116.625 116.403 119.589 116.515 123.142C116.627 126.694 119.591 129.477 123.144 129.365C126.697 129.253 129.479 126.289 129.367 122.736C129.255 119.184 126.276 116.386 122.739 116.513ZM161.172 115.301C157.619 115.413 154.836 118.377 154.948 121.93C155.06 125.483 158.024 128.266 161.577 128.154C165.13 128.042 167.913 125.078 167.8 121.525C167.688 117.972 164.709 115.174 161.172 115.301ZM8.65162 158.58C5.09872 158.692 2.31615 161.656 2.42822 165.209C2.5403 168.762 5.50416 171.545 9.05705 171.433C12.61 171.321 15.3925 168.357 15.2805 164.804C15.1684 161.251 12.2045 158.468 8.65162 158.58ZM47.0847 157.369C43.5318 157.481 40.7493 160.445 40.8613 163.998C40.9734 167.55 43.9373 170.333 47.4902 170.221C51.0431 170.109 53.8256 167.145 53.7136 163.592C53.6015 160.04 50.6376 157.257 47.0847 157.369ZM85.5179 156.157C81.9649 156.269 79.1824 159.233 79.2944 162.786C79.4065 166.339 82.3704 169.122 85.9233 169.01C89.4762 168.898 92.2587 165.934 92.1467 162.381C92.0346 158.828 89.0548 156.03 85.5179 156.157ZM123.951 154.946C120.398 155.058 117.615 158.022 117.728 161.575C117.84 165.128 120.803 167.91 124.356 167.798C127.909 167.686 130.692 164.722 130.58 161.17C130.468 157.617 127.488 154.819 123.951 154.946ZM162.368 153.72C158.815 153.832 156.033 156.795 156.145 160.348C156.257 163.901 159.221 166.684 162.774 166.572C166.326 166.46 169.109 163.496 168.997 159.943C168.901 156.405 165.921 153.608 162.368 153.72Z" fill="#A7A7A7"/>
</svg>
