<svg width="22" height="22" viewBox="0 0 22 22" fill="none" xmlns="http://www.w3.org/2000/svg">
<path d="M10.9449 2.02583L8.73577 7.16833H6.5266C6.15993 7.16833 5.80243 7.19583 5.4541 7.26916L6.37077 5.06916L6.40743 4.98666L6.46244 4.83999C6.48994 4.77583 6.50827 4.72083 6.53577 4.67499C7.5991 2.20916 8.79077 1.43916 10.9449 2.02583Z" fill="#818194"/>
<path d="M17.1695 7.41583L17.1512 7.40666C16.6012 7.25083 16.042 7.16833 15.4737 7.16833H9.73535L11.7979 2.37416L11.8254 2.31C11.9537 2.35583 12.0912 2.42 12.2287 2.46583L14.2545 3.31833C15.382 3.78583 16.1704 4.27166 16.6562 4.85833C16.7387 4.96833 16.812 5.06916 16.8854 5.18833C16.9679 5.31666 17.032 5.445 17.0687 5.5825C17.1054 5.665 17.1329 5.73833 17.1512 5.82083C17.2887 6.28833 17.2979 6.82 17.1695 7.41583Z" fill="#818194"/>
<path d="M11.4766 16.1883H11.7057C11.9807 16.1883 12.2099 15.9408 12.2099 15.6383C12.2099 15.2533 12.0999 15.1983 11.8616 15.1067L11.4766 14.9692V16.1883Z" fill="#818194"/>
<path d="M16.7662 8.72667C16.3537 8.6075 15.9229 8.54333 15.4737 8.54333H6.52704C5.90371 8.54333 5.31704 8.6625 4.76704 8.90084C3.17204 9.58834 2.05371 11.1742 2.05371 13.0167V14.8042C2.05371 15.0242 2.07204 15.235 2.09954 15.455C2.30121 18.37 3.85954 19.9283 6.77454 20.1208C6.98538 20.1483 7.19621 20.1667 7.42538 20.1667H14.5754C17.967 20.1667 19.7545 18.5533 19.9287 15.345C19.9379 15.1708 19.947 14.9875 19.947 14.8042V13.0167C19.947 10.9908 18.5995 9.28584 16.7662 8.72667ZM12.1737 14.2083C12.5954 14.355 13.1637 14.6667 13.1637 15.6383C13.1637 16.4725 12.5129 17.1417 11.7062 17.1417H11.477V17.3433C11.477 17.6092 11.2662 17.82 11.0004 17.82C10.7345 17.82 10.5237 17.6092 10.5237 17.3433V17.1417H10.4412C9.56121 17.1417 8.83704 16.3992 8.83704 15.4825C8.83704 15.2167 9.04788 15.0058 9.31371 15.0058C9.57954 15.0058 9.79038 15.2167 9.79038 15.4825C9.79038 15.8675 10.0837 16.1883 10.4412 16.1883H10.5237V14.6392L9.82704 14.3917C9.40538 14.245 8.83704 13.9333 8.83704 12.9617C8.83704 12.1275 9.48788 11.4583 10.2945 11.4583H10.5237V11.2567C10.5237 10.9908 10.7345 10.78 11.0004 10.78C11.2662 10.78 11.477 10.9908 11.477 11.2567V11.4583H11.5595C12.4395 11.4583 13.1637 12.2008 13.1637 13.1175C13.1637 13.3833 12.9529 13.5942 12.687 13.5942C12.4212 13.5942 12.2104 13.3833 12.2104 13.1175C12.2104 12.7325 11.917 12.4117 11.5595 12.4117H11.477V13.9608L12.1737 14.2083Z" fill="#818194"/>
<path d="M9.79004 12.9617C9.79004 13.3467 9.90004 13.4017 10.1384 13.4933L10.5234 13.6308V12.4117H10.2942C10.01 12.4117 9.79004 12.6592 9.79004 12.9617Z" fill="#818194"/>
</svg>
