<svg width="22" height="22" viewBox="0 0 22 22" fill="none" xmlns="http://www.w3.org/2000/svg">
<path d="M15.9907 12.4259C16.1618 12.8211 16.2614 13.3047 16.2834 13.8638C16.8612 13.9962 17.2936 14.513 17.2936 15.1302C17.2936 15.8469 16.7104 16.4301 15.9937 16.4301C15.2769 16.4301 14.6937 15.8469 14.6937 15.1302C14.6937 14.52 15.1167 14.0086 15.6843 13.8688C15.6593 13.3135 15.5265 12.4685 14.9829 12.0513C14.7024 11.9781 14.4164 11.9278 14.1278 11.9008C14.1062 12.8737 10.8903 15.2748 10.8903 15.2748C10.8903 15.2748 7.67352 12.8741 7.65172 11.9012C7.33155 11.9304 7.01472 11.9888 6.70518 12.0757C6.3086 12.3897 6.10341 12.9747 6.09281 13.825C6.21121 13.894 6.3051 13.9983 6.3614 14.1232C6.78857 14.325 7.16595 14.7494 7.45493 15.3536C7.50333 15.4552 7.50973 15.57 7.47413 15.6747C7.64732 16.1205 7.74632 16.6077 7.74632 17.0169C7.74632 17.5902 7.74632 18.1324 7.12135 18.2716C7.05359 18.328 6.96816 18.3589 6.87997 18.3588H6.46239C6.36175 18.3586 6.26527 18.3186 6.19409 18.2475C6.12291 18.1763 6.08282 18.0799 6.08261 17.9792L6.08301 17.9644C6.08737 17.8665 6.12918 17.7741 6.19979 17.7061C6.2704 17.6382 6.36441 17.6 6.46239 17.5994H6.87997C6.92252 17.5995 6.96478 17.6066 7.00496 17.6206C7.01672 17.6181 7.02799 17.6137 7.03836 17.6076C7.08475 17.5252 7.08475 17.1821 7.08475 17.0173C7.08475 16.6849 7.00156 16.2835 6.85577 15.9105C6.77998 15.8676 6.71913 15.8025 6.68138 15.7239C6.42819 15.1938 6.08381 14.8514 5.80423 14.8514C5.51824 14.8514 5.15666 15.2218 4.90448 15.7721C4.86272 15.8621 4.79135 15.935 4.70229 15.9787C4.5705 16.3355 4.4981 16.7029 4.4981 17.0171C4.4981 17.1555 4.4981 17.5226 4.5509 17.609C4.5515 17.609 4.5633 17.6162 4.59649 17.6244C4.63969 17.6078 4.68609 17.5992 4.73249 17.5992H5.15086C5.24488 17.5993 5.33552 17.6343 5.40526 17.6974C5.475 17.7604 5.51889 17.8471 5.52844 17.9406L5.53044 17.964C5.53044 18.1882 5.36005 18.359 5.15086 18.359H4.73249C4.64949 18.359 4.5693 18.3312 4.5033 18.2808C4.26431 18.2358 4.09592 18.1304 3.98933 17.9588C3.86013 17.7514 3.83654 17.479 3.83654 17.0171C3.83654 16.6119 3.93013 16.1451 4.10012 15.6993C4.0749 15.6044 4.08374 15.5036 4.12512 15.4146C4.30211 15.0274 4.5273 14.6958 4.77608 14.456C4.9053 14.3296 5.05281 14.2233 5.21366 14.1408C5.27024 14.0082 5.36845 13.8976 5.49344 13.8256C5.49984 13.2927 5.58184 12.8325 5.73343 12.4531C3.99793 13.3335 2.80859 15.134 2.80859 17.2133C2.80859 19.8703 4.74989 20.0003 7.29114 20.0003C7.56853 20.0003 7.85251 19.9987 8.1427 19.9987H13.6358C13.9256 19.9987 14.2096 20.0003 14.4869 20.0003C17.0286 20.0003 18.9707 19.8703 18.9707 17.2133C18.9705 15.112 17.7558 13.2957 15.9907 12.4259Z" fill="#818194"/>
<path d="M10.8909 12.5986C13.3476 12.5986 15.3389 8.90458 15.3389 6.44811C15.3389 3.99205 13.3476 2.00076 10.8909 2.00076C8.43465 2.00076 6.44336 3.99205 6.44336 6.44811C6.44336 8.90458 8.43465 12.5986 10.8909 12.5986Z" fill="#818194"/>
<path d="M15.9935 15.7295C16.3249 15.7295 16.5935 15.4609 16.5935 15.1295C16.5935 14.7982 16.3249 14.5295 15.9935 14.5295C15.6622 14.5295 15.3936 14.7982 15.3936 15.1295C15.3936 15.4609 15.6622 15.7295 15.9935 15.7295Z" fill="#818194"/>
</svg>
