<svg width="22" height="22" viewBox="0 0 22 22" fill="none" xmlns="http://www.w3.org/2000/svg">
<path d="M6.6 1.83334H8.98333C11.9167 1.83334 13.75 3.66668 13.75 6.60001V10.3125H8.02083C7.645 10.3125 7.33333 10.6242 7.33333 11C7.33333 11.3758 7.645 11.6875 8.02083 11.6875H13.75V15.4C13.75 18.3333 11.9167 20.1667 8.98333 20.1667H6.60917C3.67583 20.1667 1.8425 18.3333 1.8425 15.4V6.60001C1.83333 3.66668 3.66667 1.83334 6.6 1.83334Z" fill="#E11D29"/>
<path d="M17.8197 10.3125L15.9222 8.415C15.7847 8.2775 15.7205 8.10333 15.7205 7.92917C15.7205 7.755 15.7847 7.57167 15.9222 7.44333C16.188 7.1775 16.628 7.1775 16.8939 7.44333L19.9647 10.5142C20.2305 10.78 20.2305 11.22 19.9647 11.4858L16.8939 14.5567C16.628 14.8225 16.188 14.8225 15.9222 14.5567C15.6564 14.2908 15.6564 13.8508 15.9222 13.585L17.8197 11.6875H13.7497V10.3125H17.8197Z" fill="#E11D29"/>
</svg>
