<svg width="22" height="22" viewBox="0 0 22 22" fill="none" xmlns="http://www.w3.org/2000/svg">
<path d="M11.915 14.1166C11.915 12.2153 11.915 11.2646 12.5191 10.674C13.1232 10.0833 14.0955 10.0833 16.04 10.0833C17.9846 10.0833 18.9569 10.0833 19.5609 10.674C20.165 11.2646 20.165 12.2153 20.165 14.1166V16.1333C20.165 18.0346 20.165 18.9853 19.5609 19.5759C18.9569 20.1666 17.9846 20.1666 16.04 20.1666C14.0955 20.1666 13.1232 20.1666 12.5191 19.5759C11.915 18.9853 11.915 18.0346 11.915 16.1333V14.1166Z" fill="#0EABEB"/>
<path d="M1.83496 7.88328C1.83496 9.78462 1.83496 10.7353 2.43905 11.3259C3.04315 11.9166 4.01542 11.9166 5.95996 11.9166C7.9045 11.9166 8.87678 11.9166 9.48087 11.3259C10.085 10.7353 10.085 9.78462 10.085 7.88328V5.86662C10.085 3.96528 10.085 3.01462 9.48087 2.42395C8.87678 1.83328 7.9045 1.83328 5.95996 1.83328C4.01542 1.83328 3.04315 1.83328 2.43905 2.42395C1.83496 3.01462 1.83496 3.96528 1.83496 5.86662V7.88328Z" fill="#0EABEB"/>
<path d="M11.915 5.04162C11.915 4.04502 11.915 3.54672 12.072 3.15365C12.2814 2.62957 12.6829 2.21318 13.1883 1.9961C13.5673 1.83328 14.0478 1.83328 15.0088 1.83328H17.0713C18.0323 1.83328 18.5128 1.83328 18.8918 1.9961C19.3972 2.21318 19.7987 2.62957 20.008 3.15365C20.165 3.54672 20.165 4.04502 20.165 5.04162C20.165 6.03821 20.165 6.53651 20.008 6.92958C19.7987 7.45367 19.3972 7.87005 18.8918 8.08714C18.5128 8.24995 18.0323 8.24995 17.0713 8.24995H15.0088C14.0478 8.24995 13.5673 8.24995 13.1883 8.08714C12.6829 7.87005 12.2814 7.45367 12.072 6.92958C11.915 6.53651 11.915 6.03821 11.915 5.04162Z" fill="#0EABEB"/>
<path d="M1.83496 16.9583C1.83496 17.9549 1.83496 18.4532 1.99196 18.8463C2.20129 19.3704 2.60281 19.7868 3.10818 20.0039C3.4872 20.1667 3.96771 20.1667 4.92871 20.1667H6.99121C7.95222 20.1667 8.43272 20.1667 8.81175 20.0039C9.31712 19.7868 9.71863 19.3704 9.92796 18.8463C10.085 18.4532 10.085 17.9549 10.085 16.9583C10.085 15.9617 10.085 15.4634 9.92796 15.0704C9.71863 14.5463 9.31712 14.1299 8.81175 13.9128C8.43272 13.75 7.95222 13.75 6.99121 13.75H4.92871C3.96771 13.75 3.4872 13.75 3.10818 13.9128C2.60281 14.1299 2.20129 14.5463 1.99196 15.0704C1.83496 15.4634 1.83496 15.9617 1.83496 16.9583Z" fill="#0EABEB"/>
</svg>
