<svg width="69" height="47" viewBox="0 0 69 47" fill="none" xmlns="http://www.w3.org/2000/svg">
<path d="M43.6562 36.4196H19.4201V33.1964C19.4201 30.4814 21.6177 28.2805 24.3286 28.2805H48.5648V31.5037C48.565 34.2186 46.3672 36.4196 43.6562 36.4196Z" fill="#0EABEB"/>
<path d="M29.9303 46.9431V22.6704C29.9303 19.9553 32.1279 17.7544 34.8389 17.7544H38.0573V42.027C38.0573 44.742 35.8597 46.9429 33.1487 46.9429L29.9303 46.9431Z" fill="#0EABEB"/>
<path d="M17.9037 44.4697C15.0285 42.8477 12.2832 40.9555 9.77654 38.7339C8.51777 37.6291 7.34694 36.4154 6.25233 35.1249C5.16249 33.8305 4.15901 32.4459 3.29243 30.965L2.67717 29.8335L2.12598 28.687C1.77776 27.8959 1.44306 27.0493 1.1808 26.235C0.642748 24.5824 0.274826 22.8666 0.0993216 21.1176C-0.229401 17.6278 0.240401 13.9693 1.77 10.6479L2.39143 9.42705L3.11334 8.25647L3.15891 8.18333L3.24447 8.06634L3.33561 7.94159L3.51768 7.69189L3.88202 7.19248C4.19462 6.82759 4.51081 6.44916 4.83257 6.10181C6.09553 4.76701 7.55647 3.63587 9.13502 2.72574C10.713 1.81143 12.4175 1.13566 14.1753 0.67531C15.9347 0.219747 17.7556 -0.0185956 19.5865 0.00113348C20.044 0.00850698 20.5018 0.0415876 20.9595 0.062911L22.2583 0.208585C22.7245 0.288896 23.207 0.361439 23.6593 0.456498C24.0999 0.563314 24.5472 0.649996 24.982 0.77694C26.731 1.25502 28.4139 1.94195 29.9924 2.80425C33.1503 4.52726 35.9303 6.89316 38.1231 9.73175L34.9559 9.49959C36.1717 8.35152 37.5086 7.34593 38.9322 6.4922C40.3559 5.64006 41.8676 4.9348 43.4457 4.42463C46.5917 3.40291 49.9834 2.99756 53.3056 3.52586C53.7221 3.56811 54.1308 3.67732 54.5423 3.75664C54.9552 3.83216 55.3606 3.94436 55.7635 4.06633L56.3688 4.24268L56.4444 4.26481L56.4822 4.27597L56.5941 4.31482L56.726 4.36525L56.99 4.46588L57.5179 4.66716L57.7814 4.7692L58.0815 4.90849C58.4808 5.0996 58.8927 5.28773 59.276 5.49001L60.3628 6.12651C61.0615 6.58865 61.7514 7.06315 62.3843 7.6068C64.9522 9.73236 66.9311 12.5363 68.0385 15.6774C68.5936 17.2454 68.9289 18.898 69.0002 20.5694L68.9888 21.8237L68.9866 21.9801L68.9799 22.1001L68.9735 22.1707L68.947 22.4524L68.8883 23.0182C68.7636 23.8871 68.6104 24.6932 68.3805 25.4744C67.9346 27.0459 67.2955 28.5412 66.494 29.921C65.6938 31.3016 64.7705 32.5942 63.7229 33.7646C61.6194 36.1028 59.1671 38.0255 56.5712 39.6317C53.9826 41.2539 51.2772 42.609 48.5559 43.9207C51.0501 42.2142 53.5727 40.5498 55.9135 38.6953C58.2446 36.8401 60.4325 34.8202 62.1489 32.4802C62.9978 31.3064 63.7677 30.0868 64.3819 28.8026C65.0048 27.5236 65.4578 26.181 65.7364 24.8247C65.8853 24.1446 65.9545 23.455 66.0054 22.8261L66.0222 22.2629L66.0323 21.9801L66.0349 21.9094L66.0363 21.8741C66.0387 21.8265 66.0341 21.9192 66.0341 21.904L66.0333 21.8883L66.0271 21.7619L65.9834 20.7533C65.8516 19.4116 65.5096 18.0925 64.9906 16.844C64.4695 15.5969 63.784 14.4119 62.9431 13.3464C62.096 12.2862 61.1251 11.3296 60.0626 10.503C59.5361 10.0813 58.9652 9.72558 58.3955 9.37504L57.5128 8.90194L56.6615 8.52331L56.4474 8.42804L56.1804 8.33577L55.6471 8.14885L55.3805 8.05538L55.2471 8.00855L55.2304 8.00278C55.1554 7.97687 55.3138 8.03128 55.2921 8.0245L55.2619 8.01673L55.2014 8.00118L54.7176 7.87642C54.3969 7.78774 54.0745 7.70564 53.7432 7.65741C53.4135 7.6054 53.0903 7.52131 52.7549 7.50038C50.1008 7.15801 47.3518 7.53306 44.7911 8.40413C43.505 8.83717 42.2843 9.44977 41.1244 10.1437C39.9679 10.8462 38.8876 11.6686 37.9142 12.5955L36.2103 14.2184L34.7467 12.3633C32.8874 10.0064 30.5706 7.98843 27.9516 6.54801C26.6423 5.83039 25.2657 5.24648 23.8464 4.82998C23.4932 4.71878 23.1312 4.64664 22.7742 4.55118C22.4226 4.47147 22.0909 4.41905 21.7485 4.34671L20.5965 4.19666C20.2326 4.17693 19.8694 4.14224 19.5045 4.13009C16.582 4.03822 13.6012 4.72515 11.0035 6.102C9.70332 6.78714 8.50026 7.64924 7.45817 8.66937L6.75019 9.40972L6.02071 10.3107L5.3955 11.212L4.84391 12.1668C4.15562 13.4713 3.66015 14.8954 3.3559 16.3751C3.04847 17.8554 2.94182 19.3898 2.98719 20.9285C3.02778 22.4686 3.24029 24.0162 3.61299 25.5306C3.80223 26.3022 4.0231 27.0083 4.28218 27.749L4.72114 28.8672L5.20945 29.9475C5.88898 31.378 6.69467 32.7612 7.61199 34.0791C8.52473 35.4013 9.55786 36.6464 10.6415 37.8567C12.8242 40.2662 15.3049 42.4336 17.9037 44.4697Z" fill="#0EABEB"/>
</svg>
