<svg width="48" height="48" viewBox="0 0 48 48" fill="none" xmlns="http://www.w3.org/2000/svg">
<circle cx="24" cy="24" r="24" fill="#F6F8FB"/>
<path d="M33.5551 26.4033L32.2367 24.21C31.9451 23.7317 31.6884 22.81 31.6884 22.25V20.0683C31.6884 15.8333 28.2467 12.3917 24.0234 12.3917C19.7884 12.4033 16.3467 15.8333 16.3467 20.0683V22.2383C16.3467 22.7983 16.0901 23.72 15.8101 24.1983L14.4917 26.3917C13.9901 27.2433 13.8734 28.2117 14.1884 29.0517C14.5034 29.9033 15.2151 30.58 16.1484 30.8833C17.4084 31.3033 18.6801 31.6067 19.9751 31.8283C20.1034 31.8517 20.2317 31.8633 20.3601 31.8867C20.5234 31.91 20.6984 31.9333 20.8734 31.9567C21.1767 32.0033 21.4801 32.0383 21.7951 32.0617C22.5301 32.1317 23.2767 32.1667 24.0234 32.1667C24.7584 32.1667 25.4934 32.1317 26.2167 32.0617C26.4851 32.0383 26.7534 32.015 27.0101 31.98C27.2201 31.9567 27.4301 31.9333 27.6401 31.8983C27.7684 31.8867 27.8967 31.8633 28.0251 31.84C29.3317 31.63 30.6267 31.3033 31.8867 30.8833C32.7851 30.58 33.4734 29.9033 33.8001 29.04C34.1267 28.165 34.0334 27.2083 33.5551 26.4033ZM24.8751 21.6667C24.8751 22.1567 24.4784 22.5533 23.9884 22.5533C23.4984 22.5533 23.1017 22.1567 23.1017 21.6667V18.05C23.1017 17.56 23.4984 17.1633 23.9884 17.1633C24.4784 17.1633 24.8751 17.56 24.8751 18.05V21.6667Z" fill="#4F4F4F"/>
<path d="M27.3016 33.345C26.8116 34.6983 25.5166 35.6667 24 35.6667C23.0783 35.6667 22.1683 35.2933 21.5266 34.6283C21.1533 34.2783 20.8733 33.8117 20.71 33.3333C20.8616 33.3567 21.0133 33.3683 21.1766 33.3917C21.445 33.4267 21.725 33.4617 22.005 33.485C22.67 33.5433 23.3466 33.5783 24.0233 33.5783C24.6883 33.5783 25.3533 33.5433 26.0066 33.485C26.2516 33.4617 26.4966 33.45 26.73 33.415C26.9166 33.3917 27.1033 33.3683 27.3016 33.345Z" fill="#4F4F4F"/>
</svg>
