<svg width="22" height="22" viewBox="0 0 22 22" fill="none" xmlns="http://www.w3.org/2000/svg">
<path d="M0.916992 18.3333V15.7667C0.916992 15.2472 1.05067 14.7698 1.31803 14.3344C1.58539 13.899 1.9406 13.5667 2.38366 13.3375C3.33088 12.8639 4.29338 12.5087 5.27116 12.2719C6.24894 12.0351 7.24199 11.9167 8.25033 11.9167C9.25866 11.9167 10.2517 12.0351 11.2295 12.2719C12.2073 12.5087 13.1698 12.8639 14.117 13.3375C14.56 13.5667 14.9153 13.899 15.1826 14.3344C15.45 14.7698 15.5837 15.2472 15.5837 15.7667V18.3333H0.916992ZM17.417 18.3333V15.5833C17.417 14.9111 17.2298 14.2656 16.8555 13.6469C16.4812 13.0281 15.9503 12.4972 15.2628 12.0542C16.042 12.1458 16.7753 12.3024 17.4628 12.524C18.1503 12.7455 18.792 13.0167 19.3878 13.3375C19.9378 13.6431 20.358 13.983 20.6482 14.3573C20.9385 14.7316 21.0837 15.1403 21.0837 15.5833V18.3333H17.417ZM8.25033 11C7.24199 11 6.3788 10.641 5.66074 9.92292C4.94269 9.20487 4.58366 8.34167 4.58366 7.33334C4.58366 6.32501 4.94269 5.46181 5.66074 4.74376C6.3788 4.0257 7.24199 3.66667 8.25033 3.66667C9.25866 3.66667 10.1219 4.0257 10.8399 4.74376C11.558 5.46181 11.917 6.32501 11.917 7.33334C11.917 8.34167 11.558 9.20487 10.8399 9.92292C10.1219 10.641 9.25866 11 8.25033 11ZM17.417 7.33334C17.417 8.34167 17.058 9.20487 16.3399 9.92292C15.6219 10.641 14.7587 11 13.7503 11C13.5823 11 13.3684 10.9809 13.1087 10.9427C12.8489 10.9045 12.635 10.8625 12.467 10.8167C12.8795 10.3278 13.1965 9.78542 13.418 9.18959C13.6396 8.59376 13.7503 7.97501 13.7503 7.33334C13.7503 6.69167 13.6396 6.07292 13.418 5.47709C13.1965 4.88126 12.8795 4.33889 12.467 3.85001C12.6809 3.77362 12.8948 3.72396 13.1087 3.70105C13.3225 3.67813 13.5364 3.66667 13.7503 3.66667C14.7587 3.66667 15.6219 4.0257 16.3399 4.74376C17.058 5.46181 17.417 6.32501 17.417 7.33334Z" fill="#818194"/>
</svg>
