<svg width="169" height="172" viewBox="0 0 169 172" fill="none" xmlns="http://www.w3.org/2000/svg">
<path opacity="0.2" d="M42.235 3.6366C38.6821 3.74859 35.8995 6.71237 36.0116 10.2653C36.1237 13.8182 39.0875 16.6008 42.6404 16.4888C46.1933 16.3768 48.9759 13.413 48.8638 9.86013C48.7518 6.30723 45.7879 3.5246 42.235 3.6366ZM80.6681 2.42512C77.1152 2.53711 74.3327 5.50086 74.4447 9.05377C74.5568 12.6067 77.5207 15.3893 81.0736 15.2773C84.6265 15.1653 87.409 12.2016 87.2969 8.64867C87.1849 5.09577 84.221 2.31312 80.6681 2.42512ZM119.101 1.21365C115.548 1.32564 112.766 4.28942 112.878 7.84232C112.99 11.3952 115.954 14.1779 119.507 14.0659C123.06 13.9539 125.842 10.9901 125.73 7.4372C125.618 3.8843 122.654 1.10165 119.101 1.21365ZM157.534 0.00218411C153.981 0.114181 151.199 3.07796 151.311 6.63086C151.423 10.1838 154.387 12.9664 157.94 12.8544C161.493 12.7424 164.275 9.77863 164.163 6.22573C164.036 2.68877 161.072 -0.0938799 157.534 0.00218411ZM43.4474 42.0696C39.8945 42.1816 37.1119 45.1454 37.224 48.6983C37.3361 52.2512 40.2999 55.0339 43.8528 54.9219C47.4057 54.8099 50.1883 51.8461 50.0762 48.2932C49.9641 44.7403 47.0003 41.9577 43.4474 42.0696ZM81.8805 40.8582C78.3276 40.9702 75.545 43.934 75.6571 47.4869C75.7692 51.0398 78.733 53.8224 82.2859 53.7104C85.8388 53.5984 88.6214 50.6346 88.5093 47.0817C88.3972 43.5288 85.4334 40.7462 81.8805 40.8582ZM120.314 39.6467C116.761 39.7587 113.978 42.7225 114.09 46.2754C114.202 49.8283 117.166 52.6109 120.719 52.4989C124.272 52.3869 127.054 49.4232 126.942 45.8703C126.83 42.3174 123.866 39.5347 120.314 39.6467ZM158.747 38.4353C155.194 38.5473 152.411 41.511 152.523 45.0639C152.635 48.6168 155.599 51.3995 159.152 51.2875C162.705 51.1755 165.488 48.2117 165.376 44.6588C165.263 41.1059 162.3 38.3233 158.747 38.4353ZM6.22668 81.7142C2.67378 81.8262 -0.108804 84.79 0.00327266 88.3428C0.115349 91.8957 3.07921 94.6784 6.6321 94.5664C10.185 94.4544 12.9676 91.4906 12.8555 87.9377C12.7434 84.3848 9.77957 81.6022 6.22668 81.7142ZM44.6598 80.5027C41.1069 80.6147 38.3243 83.5785 38.4364 87.1314C38.5484 90.6843 41.5123 93.4669 45.0652 93.3549C48.6181 93.2429 51.4007 90.2792 51.2886 86.7263C51.1765 83.1734 48.2127 80.3907 44.6598 80.5027ZM83.0929 79.2913C79.54 79.4032 76.7574 82.367 76.8695 85.9199C76.9816 89.4728 79.9454 92.2555 83.4983 92.1435C87.0512 92.0315 89.8338 89.0677 89.7217 85.5148C89.6096 81.9619 86.6458 79.1793 83.0929 79.2913ZM121.526 78.0798C117.973 78.1918 115.19 81.1556 115.303 84.7085C115.415 88.2614 118.378 91.044 121.931 90.932C125.484 90.82 128.267 87.8563 128.155 84.3034C128.043 80.7505 125.079 77.9678 121.526 78.0798ZM159.959 76.8683C156.406 76.9803 153.624 79.9441 153.736 83.497C153.848 87.0499 156.812 89.8325 160.364 89.7205C163.917 89.6085 166.7 86.6448 166.588 83.0919C166.476 79.539 163.496 76.7414 159.959 76.8683ZM7.43905 120.147C3.88615 120.259 1.10358 123.223 1.21566 126.776C1.32774 130.329 4.2916 133.111 7.84449 132.999C11.3974 132.887 14.18 129.924 14.0679 126.371C13.9558 122.818 10.992 120.035 7.43905 120.147ZM45.8722 118.936C42.3193 119.048 39.5367 122.012 39.6488 125.564C39.7608 129.117 42.7247 131.9 46.2776 131.788C49.8305 131.676 52.6131 128.712 52.501 125.159C52.3889 121.606 49.4251 118.824 45.8722 118.936ZM84.3053 117.724C80.7524 117.836 77.9698 120.8 78.0819 124.353C78.1939 127.906 81.1578 130.689 84.7107 130.577C88.2636 130.465 91.0462 127.501 90.9341 123.948C90.822 120.395 87.8582 117.612 84.3053 117.724ZM122.738 116.513C119.185 116.625 116.403 119.589 116.515 123.142C116.627 126.694 119.591 129.477 123.144 129.365C126.697 129.253 129.479 126.289 129.367 122.736C129.255 119.183 126.275 116.386 122.738 116.513ZM161.171 115.301C157.619 115.413 154.836 118.377 154.948 121.93C155.06 125.483 158.024 128.266 161.577 128.154C165.13 128.042 167.912 125.078 167.8 121.525C167.688 117.972 164.708 115.174 161.171 115.301ZM8.65144 158.58C5.09854 158.692 2.31596 161.656 2.42804 165.209C2.54012 168.762 5.50397 171.545 9.05687 171.433C12.6098 171.321 15.3923 168.357 15.2803 164.804C15.1682 161.251 12.2043 158.468 8.65144 158.58ZM47.0845 157.369C43.5316 157.481 40.7491 160.445 40.8611 163.998C40.9732 167.55 43.9371 170.333 47.49 170.221C51.0429 170.109 53.8254 167.145 53.7134 163.592C53.6013 160.04 50.6374 157.257 47.0845 157.369ZM85.5176 156.157C81.9647 156.269 79.1822 159.233 79.2942 162.786C79.4063 166.339 82.3701 169.122 85.923 169.01C89.4759 168.898 92.2585 165.934 92.1464 162.381C92.0344 158.828 89.0546 156.03 85.5176 156.157ZM123.951 154.946C120.398 155.058 117.615 158.022 117.727 161.575C117.839 165.128 120.803 167.91 124.356 167.798C127.909 167.686 130.692 164.722 130.58 161.169C130.467 157.617 127.488 154.819 123.951 154.946ZM162.368 153.72C158.815 153.831 156.032 156.795 156.144 160.348C156.257 163.901 159.22 166.684 162.773 166.572C166.326 166.46 169.109 163.496 168.997 159.943C168.901 156.405 165.921 153.608 162.368 153.72Z" fill="#A7A7A7"/>
</svg>
